<svg width="186" height="64" viewBox="0 0 186 64" fill="none" xmlns="http://www.w3.org/2000/svg">
<path d="M72.9778 24.0749C77.0645 24.0749 80.4337 27.6625 80.4337 32.3107C80.4337 36.959 77.0645 40.5465 72.9778 40.5465C70.8904 40.5465 69.3727 39.8421 68.3298 38.6529V39.3299C68.3298 39.829 68.0491 40.1098 67.5499 40.1098H64.4303C63.9312 40.1098 63.6504 39.829 63.6504 39.3299V19.0523C63.6504 18.5531 63.9312 18.2724 64.4303 18.2724H67.5499C68.0491 18.2724 68.3298 18.5531 68.3298 19.0523V25.9685C69.3727 24.7793 70.8904 24.0749 72.9778 24.0749ZM72.0419 36.1167C74.1944 36.1167 75.7542 34.6504 75.7542 32.3107C75.7542 29.971 74.1944 28.5048 72.0419 28.5048C69.8893 28.5048 68.3295 29.971 68.3295 32.3107C68.3295 34.6504 69.8893 36.1167 72.0419 36.1167ZM83.8652 22.6398C83.3661 22.6398 83.0853 22.3591 83.0853 21.8599V19.0523C83.0853 18.5531 83.3661 18.2724 83.8652 18.2724H86.9849C87.484 18.2724 87.7648 18.5531 87.7648 19.0523V21.8599C87.7648 22.3591 87.484 22.6398 86.9849 22.6398H83.8652ZM83.8652 40.1098C83.3661 40.1098 83.0853 39.829 83.0853 39.3299V25.2915C83.0853 24.7924 83.3661 24.5116 83.8652 24.5116H86.9849C87.484 24.5116 87.7648 24.7924 87.7648 25.2915V39.3299C87.7648 39.829 87.484 40.1098 86.9849 40.1098H83.8652ZM91.9763 40.1098C91.4771 40.1098 91.1964 39.829 91.1964 39.3299V18.4283C91.1964 17.9292 91.4771 17.6484 91.9763 17.6484H95.0959C95.595 17.6484 95.8758 17.9292 95.8758 18.4283V39.3299C95.8758 39.829 95.595 40.1098 95.0959 40.1098H91.9763ZM100.087 40.1098C99.5882 40.1098 99.3074 39.829 99.3074 39.3299V18.4283C99.3074 17.9292 99.5882 17.6484 100.087 17.6484H103.207C103.706 17.6484 103.987 17.9292 103.987 18.4283V39.3299C103.987 39.829 103.706 40.1098 103.207 40.1098H100.087ZM116.434 25.1667C116.559 24.73 116.871 24.5116 117.308 24.5116H120.677C121.238 24.5116 121.519 24.8236 121.332 25.3851L114.594 45.7251C114.469 46.1619 114.126 46.349 113.689 46.349H110.32C109.758 46.349 109.477 46.0371 109.665 45.4755L111.536 39.8602L106.046 25.4163C105.859 24.886 106.108 24.5116 106.67 24.5116H110.039C110.476 24.5116 110.756 24.73 110.912 25.1356L113.876 33.4026L116.434 25.1667Z" fill="#03468E"/>
</svg>
