<svg width="186" height="64" viewBox="0 0 186 64" fill="none" xmlns="http://www.w3.org/2000/svg">
<g style="mix-blend-mode:luminosity">
<path d="M45.6182 39.668C45.5169 39.668 45.4257 39.6325 45.3446 39.5615C45.2736 39.4804 45.2381 39.3892 45.2381 39.2879V29.405C45.2381 29.2935 45.2736 29.2023 45.3446 29.1313C45.4257 29.0604 45.5169 29.0249 45.6182 29.0249H50.2556C51.5327 29.0249 52.4805 29.2885 53.0988 29.8155C53.7272 30.3325 54.0415 31.0724 54.0415 32.0354C54.0415 32.5422 53.9097 32.973 53.6462 33.3277C53.3927 33.6724 53.1039 33.9258 52.7795 34.088C53.1951 34.2806 53.5448 34.5897 53.8286 35.0154C54.1124 35.4412 54.2543 35.9176 54.2543 36.4446C54.2543 37.4583 53.9198 38.2489 53.2508 38.8165C52.5818 39.3842 51.629 39.668 50.3924 39.668H45.6182ZM49.9515 33.2517C50.3569 33.2517 50.6661 33.1504 50.879 32.9476C51.0918 32.7348 51.1982 32.456 51.1982 32.1114C51.1982 31.7769 51.0918 31.5083 50.879 31.3056C50.6661 31.1028 50.3569 31.0015 49.9515 31.0015H47.9749V33.2517H49.9515ZM50.0883 37.6914C50.5039 37.6914 50.8283 37.5698 51.0614 37.3265C51.2945 37.0832 51.4111 36.7893 51.4111 36.4446C51.4111 36.0797 51.2945 35.7807 51.0614 35.5476C50.8283 35.3043 50.5039 35.1827 50.0883 35.1827H47.9749V37.6914H50.0883ZM61.0218 39.82C59.5926 39.82 58.4726 39.4703 57.6617 38.7709C56.8609 38.0715 56.4605 37.0173 56.4605 35.6084V29.405C56.4605 29.2935 56.496 29.2023 56.5669 29.1313C56.648 29.0604 56.7393 29.0249 56.8406 29.0249H58.802C58.9135 29.0249 59.0047 29.0604 59.0757 29.1313C59.1567 29.2023 59.1973 29.2935 59.1973 29.405V35.5932C59.1973 36.2521 59.3493 36.7487 59.6534 37.0832C59.9676 37.4076 60.4187 37.5698 61.0066 37.5698C61.5844 37.5698 62.0304 37.4025 62.3446 37.068C62.6588 36.7335 62.8159 36.2419 62.8159 35.5932V29.405C62.8159 29.2935 62.8514 29.2023 62.9224 29.1313C63.0035 29.0604 63.0947 29.0249 63.196 29.0249H65.1726C65.2841 29.0249 65.3753 29.0604 65.4463 29.1313C65.5172 29.2023 65.5527 29.2935 65.5527 29.405V35.6084C65.5527 37.0173 65.1473 38.0715 64.3364 38.7709C63.5356 39.4703 62.4308 39.82 61.0218 39.82ZM68.0707 39.668C67.9592 39.668 67.868 39.6325 67.797 39.5615C67.7261 39.4804 67.6906 39.3842 67.6906 39.2727V37.7978C67.6906 37.585 67.7666 37.4025 67.9187 37.2505L72.8145 31.2904H68.2075C68.1062 31.2904 68.015 31.2549 67.9339 31.1839C67.8629 31.1028 67.8274 31.0116 67.8274 30.9102V29.405C67.8274 29.2935 67.8629 29.2023 67.9339 29.1313C68.015 29.0604 68.1062 29.0249 68.2075 29.0249H75.8858C75.9973 29.0249 76.0885 29.0604 76.1594 29.1313C76.2304 29.2023 76.2659 29.2935 76.2659 29.405V30.8798C76.2659 31.0522 76.2 31.2245 76.0682 31.3968L71.3092 37.3721H76.053C76.1645 37.3721 76.2557 37.4127 76.3267 37.4937C76.4078 37.5647 76.4483 37.6559 76.4483 37.7674V39.2879C76.4483 39.3994 76.4078 39.4906 76.3267 39.5615C76.2557 39.6325 76.1645 39.668 76.053 39.668H68.0707ZM78.5677 39.668C78.4562 39.668 78.3649 39.6325 78.294 39.5615C78.223 39.4804 78.1876 39.3842 78.1876 39.2727V37.7978C78.1876 37.585 78.2636 37.4025 78.4156 37.2505L83.3114 31.2904H78.7045C78.6031 31.2904 78.5119 31.2549 78.4308 31.1839C78.3599 31.1028 78.3244 31.0116 78.3244 30.9102V29.405C78.3244 29.2935 78.3599 29.2023 78.4308 29.1313C78.5119 29.0604 78.6031 29.0249 78.7045 29.0249H86.3827C86.4942 29.0249 86.5854 29.0604 86.6564 29.1313C86.7273 29.2023 86.7628 29.2935 86.7628 29.405V30.8798C86.7628 31.0522 86.6969 31.2245 86.5652 31.3968L81.8062 37.3721H86.55C86.6615 37.3721 86.7527 37.4127 86.8236 37.4937C86.9047 37.5647 86.9453 37.6559 86.9453 37.7674V39.2879C86.9453 39.3994 86.9047 39.4906 86.8236 39.5615C86.7527 39.6325 86.6615 39.668 86.55 39.668H78.5677ZM89.7792 39.668C89.6779 39.668 89.5917 39.6376 89.5207 39.5767C89.4599 39.5058 89.4295 39.4196 89.4295 39.3183V29.3898C89.4295 29.2783 89.4599 29.1922 89.5207 29.1313C89.5917 29.0604 89.6779 29.0249 89.7792 29.0249H93.9452C95.0298 29.0249 95.8458 29.2834 96.3931 29.8003C96.9405 30.3173 97.2142 30.9964 97.2142 31.8377C97.2142 32.4053 97.0824 32.8767 96.8188 33.2517C96.5654 33.6268 96.2614 33.9004 95.9066 34.0728C96.3323 34.2856 96.6921 34.615 96.9861 35.061C97.28 35.507 97.427 36.0189 97.427 36.5967C97.427 37.1643 97.2953 37.6813 97.0317 38.1475C96.7783 38.6138 96.3982 38.9838 95.8914 39.2575C95.3846 39.5311 94.7764 39.668 94.0669 39.668H89.7792ZM93.7172 33.5254C94.3557 33.5254 94.8423 33.3784 95.1768 33.0845C95.5214 32.7905 95.6937 32.38 95.6937 31.8529C95.6937 31.336 95.5265 30.9407 95.192 30.667C94.8575 30.3933 94.3659 30.2565 93.7172 30.2565H90.9196V33.5254H93.7172ZM93.8692 38.4364C94.5078 38.4364 95.0045 38.2641 95.3592 37.9195C95.7241 37.5748 95.9066 37.1339 95.9066 36.5967C95.9066 36.0392 95.7241 35.5932 95.3592 35.2587C95.0045 34.9141 94.5078 34.7418 93.8692 34.7418H90.9196V38.4364H93.8692ZM99.3604 39.668C99.2793 39.668 99.2083 39.6376 99.1475 39.5767C99.0867 39.5159 99.0563 39.445 99.0563 39.3639C99.0563 39.2828 99.0613 39.227 99.0715 39.1966L102.842 29.3594C102.923 29.1364 103.085 29.0249 103.329 29.0249H104.363C104.606 29.0249 104.768 29.1364 104.849 29.3594L108.605 39.1966L108.635 39.3639C108.635 39.445 108.605 39.5159 108.544 39.5767C108.483 39.6376 108.412 39.668 108.331 39.668H107.556C107.444 39.668 107.358 39.6426 107.297 39.5919C107.236 39.5311 107.196 39.4703 107.175 39.4095L106.339 37.2505H101.352L100.516 39.4095C100.496 39.4703 100.45 39.5311 100.379 39.5919C100.318 39.6426 100.237 39.668 100.136 39.668H99.3604ZM105.898 35.9429L103.846 30.5453L101.793 35.9429H105.898ZM114.141 39.82C113.3 39.82 112.57 39.6882 111.952 39.4247C111.344 39.1612 110.878 38.8165 110.553 38.3908C110.229 37.9549 110.056 37.4887 110.036 36.992C110.036 36.9109 110.067 36.84 110.127 36.7791C110.198 36.7082 110.279 36.6727 110.371 36.6727H111.146C111.339 36.6727 111.47 36.7741 111.541 36.9768C111.633 37.4025 111.891 37.7674 112.317 38.0715C112.753 38.3756 113.361 38.5276 114.141 38.5276C114.983 38.5276 115.616 38.3807 116.042 38.0867C116.468 37.7826 116.681 37.362 116.681 36.8248C116.681 36.4801 116.574 36.2014 116.361 35.9885C116.158 35.7756 115.854 35.5881 115.449 35.4259C115.044 35.2638 114.435 35.061 113.624 34.8178C112.834 34.5948 112.205 34.3566 111.739 34.1032C111.273 33.8498 110.923 33.5355 110.69 33.1605C110.457 32.7855 110.34 32.3141 110.34 31.7465C110.34 31.1991 110.487 30.7075 110.781 30.2717C111.085 29.8358 111.516 29.4962 112.074 29.253C112.631 28.9996 113.295 28.8729 114.065 28.8729C114.856 28.8729 115.535 29.0148 116.103 29.2986C116.67 29.5723 117.101 29.922 117.395 30.3477C117.689 30.7734 117.846 31.1991 117.866 31.6249C117.866 31.7059 117.836 31.7769 117.775 31.8377C117.725 31.8985 117.649 31.9289 117.547 31.9289H116.741C116.528 31.9289 116.397 31.8326 116.346 31.6401C116.285 31.2143 116.047 30.8646 115.631 30.591C115.216 30.3071 114.694 30.1652 114.065 30.1652C113.376 30.1652 112.834 30.297 112.438 30.5605C112.043 30.8241 111.846 31.2143 111.846 31.7313C111.846 32.0759 111.937 32.3597 112.119 32.5827C112.312 32.8057 112.601 33.0034 112.986 33.1757C113.371 33.3379 113.934 33.5254 114.674 33.7383C115.535 33.9714 116.214 34.2147 116.711 34.4681C117.208 34.7113 117.578 35.0205 117.821 35.3955C118.064 35.7604 118.186 36.2267 118.186 36.7943C118.186 37.737 117.821 38.477 117.091 39.0142C116.361 39.5514 115.378 39.82 114.141 39.82ZM124.208 39.82C123.366 39.82 122.637 39.6882 122.018 39.4247C121.41 39.1612 120.944 38.8165 120.62 38.3908C120.295 37.9549 120.123 37.4887 120.103 36.992C120.103 36.9109 120.133 36.84 120.194 36.7791C120.265 36.7082 120.346 36.6727 120.437 36.6727H121.212C121.405 36.6727 121.537 36.7741 121.608 36.9768C121.699 37.4025 121.957 37.7674 122.383 38.0715C122.819 38.3756 123.427 38.5276 124.208 38.5276C125.049 38.5276 125.683 38.3807 126.108 38.0867C126.534 37.7826 126.747 37.362 126.747 36.8248C126.747 36.4801 126.64 36.2014 126.428 35.9885C126.225 35.7756 125.921 35.5881 125.515 35.4259C125.11 35.2638 124.502 35.061 123.691 34.8178C122.9 34.5948 122.272 34.3566 121.805 34.1032C121.339 33.8498 120.989 33.5355 120.756 33.1605C120.523 32.7855 120.407 32.3141 120.407 31.7465C120.407 31.1991 120.554 30.7075 120.848 30.2717C121.152 29.8358 121.582 29.4962 122.14 29.253C122.697 28.9996 123.361 28.8729 124.132 28.8729C124.922 28.8729 125.601 29.0148 126.169 29.2986C126.737 29.5723 127.168 29.922 127.461 30.3477C127.755 30.7734 127.913 31.1991 127.933 31.6249C127.933 31.7059 127.902 31.7769 127.842 31.8377C127.791 31.8985 127.715 31.9289 127.614 31.9289H126.808C126.595 31.9289 126.463 31.8326 126.412 31.6401C126.352 31.2143 126.113 30.8646 125.698 30.591C125.282 30.3071 124.76 30.1652 124.132 30.1652C123.442 30.1652 122.9 30.297 122.505 30.5605C122.11 30.8241 121.912 31.2143 121.912 31.7313C121.912 32.0759 122.003 32.3597 122.186 32.5827C122.378 32.8057 122.667 33.0034 123.052 33.1757C123.437 33.3379 124 33.5254 124.74 33.7383C125.601 33.9714 126.281 34.2147 126.777 34.4681C127.274 34.7113 127.644 35.0205 127.887 35.3955C128.13 35.7604 128.252 36.2267 128.252 36.7943C128.252 37.737 127.887 38.477 127.157 39.0142C126.428 39.5514 125.444 39.82 124.208 39.82ZM129.99 39.668C129.909 39.668 129.838 39.6376 129.777 39.5767C129.716 39.5159 129.686 39.445 129.686 39.3639C129.686 39.2828 129.691 39.227 129.701 39.1966L133.472 29.3594C133.553 29.1364 133.715 29.0249 133.958 29.0249H134.992C135.236 29.0249 135.398 29.1364 135.479 29.3594L139.234 39.1966L139.265 39.3639C139.265 39.445 139.234 39.5159 139.173 39.5767C139.113 39.6376 139.042 39.668 138.961 39.668H138.185C138.074 39.668 137.988 39.6426 137.927 39.5919C137.866 39.5311 137.825 39.4703 137.805 39.4095L136.969 37.2505H131.982L131.146 39.4095C131.125 39.4703 131.08 39.5311 131.009 39.5919C130.948 39.6426 130.867 39.668 130.765 39.668H129.99ZM136.528 35.9429L134.475 30.5453L132.423 35.9429H136.528ZM141.848 39.668C141.747 39.668 141.661 39.6376 141.59 39.5767C141.529 39.5058 141.499 39.4196 141.499 39.3183V29.3898C141.499 29.2783 141.529 29.1922 141.59 29.1313C141.661 29.0604 141.747 29.0249 141.848 29.0249H145.3C146.83 29.0249 147.935 29.3695 148.614 30.0588C149.293 30.7379 149.648 31.7668 149.679 33.1453C149.689 33.4392 149.694 33.8346 149.694 34.3312C149.694 34.8279 149.689 35.2283 149.679 35.5324C149.648 36.4953 149.486 37.2809 149.192 37.8891C148.908 38.4871 148.457 38.9331 147.839 39.227C147.22 39.521 146.399 39.668 145.376 39.668H141.848ZM145.3 38.3756C145.999 38.3756 146.551 38.2793 146.957 38.0867C147.373 37.8941 147.672 37.59 147.854 37.1745C148.047 36.7487 148.153 36.1811 148.173 35.4716C148.194 34.8634 148.204 34.4833 148.204 34.3312C148.204 34.1691 148.194 33.794 148.173 33.2061C148.153 32.2026 147.915 31.4728 147.459 31.0167C147.003 30.5504 146.258 30.3173 145.224 30.3173H142.989V38.3756H145.3ZM156.421 39.82C155.093 39.82 154.064 39.4754 153.334 38.7861C152.615 38.0867 152.235 37.0376 152.194 35.6388C152.184 35.3347 152.179 34.9039 152.179 34.3464C152.179 33.7889 152.184 33.3632 152.194 33.0693C152.235 31.7009 152.63 30.6619 153.38 29.9524C154.13 29.2327 155.144 28.8729 156.421 28.8729C157.688 28.8729 158.697 29.2327 159.447 29.9524C160.197 30.6619 160.592 31.7009 160.633 33.0693C160.653 33.6572 160.663 34.0829 160.663 34.3464C160.663 34.5998 160.653 35.0306 160.633 35.6388C160.592 37.0376 160.207 38.0867 159.477 38.7861C158.757 39.4754 157.739 39.82 156.421 39.82ZM156.421 38.5276C157.222 38.5276 157.86 38.2844 158.337 37.7978C158.813 37.3113 159.072 36.5663 159.112 35.5628C159.132 34.9546 159.143 34.5492 159.143 34.3464C159.143 34.1234 159.132 33.718 159.112 33.1301C159.072 32.1266 158.808 31.3816 158.321 30.895C157.845 30.4085 157.212 30.1652 156.421 30.1652C155.62 30.1652 154.977 30.4085 154.49 30.895C154.014 31.3816 153.755 32.1266 153.715 33.1301C153.704 33.424 153.699 33.8295 153.699 34.3464C153.699 34.8533 153.704 35.2587 153.715 35.5628C153.755 36.5663 154.014 37.3113 154.49 37.7978C154.977 38.2844 155.62 38.5276 156.421 38.5276ZM163.837 39.668C163.736 39.668 163.649 39.6376 163.579 39.5767C163.518 39.5058 163.487 39.4196 163.487 39.3183V29.3898C163.487 29.2783 163.518 29.1922 163.579 29.1313C163.649 29.0604 163.736 29.0249 163.837 29.0249H167.547C168.713 29.0249 169.625 29.2986 170.284 29.8459C170.943 30.3933 171.272 31.1839 171.272 32.2178C171.272 32.9882 171.079 33.6217 170.694 34.1184C170.319 34.615 169.787 34.9597 169.098 35.1523L171.439 39.1966C171.47 39.2575 171.485 39.3132 171.485 39.3639C171.485 39.445 171.449 39.5159 171.378 39.5767C171.318 39.6376 171.247 39.668 171.166 39.668H170.436C170.284 39.668 170.162 39.6325 170.071 39.5615C169.99 39.4906 169.914 39.3892 169.843 39.2575L167.638 35.3955H164.977V39.3183C164.977 39.4196 164.942 39.5058 164.871 39.5767C164.8 39.6376 164.714 39.668 164.612 39.668H163.837ZM167.486 34.1032C168.996 34.1032 169.751 33.4697 169.751 32.2026C169.751 30.9356 168.996 30.3021 167.486 30.3021H164.977V34.1032H167.486Z" fill="#808A9E"/>
<path d="M13.3349 30.1691L20.5531 34.3366V42.6715L13.3349 46.8389L6.11666 42.6715V34.3366L13.3349 30.1691Z" fill="#FDD92A"/>
<path d="M21.6698 16L28.8881 20.1674V28.5023L21.6698 32.6698L14.4516 28.5023V20.1674L21.6698 16Z" fill="#FDD92A"/>
<path d="M30.0048 30.1691L37.223 34.3366V42.6715L30.0048 46.8389L22.7866 42.6715V34.3366L30.0048 30.1691Z" fill="#FDD92A"/>
<path d="M30.0049 38.0873V46.8389L37.0895 42.6715V34.3366L30.0049 38.0873Z" fill="#EFCC24"/>
<path d="M13.335 38.0873V46.8389L20.4196 42.6715V34.3366L13.335 38.0873Z" fill="#EFCC24"/>
<path d="M21.6699 23.9181V32.6698L28.7546 28.5023V20.1674L21.6699 23.9181Z" fill="#EFCC24"/>
</g>
</svg>
