<svg width="186" height="64" viewBox="0 0 186 64" fill="none" xmlns="http://www.w3.org/2000/svg">
  <g style="mix-blend-mode:luminosity">
    <path fill-rule="evenodd" clip-rule="evenodd" d="M47.7172 25.2551L53.4691 31.1044C54.6806 32.3364 54.6806 34.334 53.4691 35.5661C52.2575 36.7981 50.2932 36.7981 49.0816 35.5661L43.3297 29.7168L43.2379 29.6279C42.3371 28.7933 40.9254 28.8246 40.048 29.7168L34.2961 35.5661C33.0846 36.7981 31.1202 36.7981 29.9087 35.5661C28.6971 34.334 28.6971 32.3364 29.9087 31.1044L35.8154 25.1015C39.1616 21.8644 44.4449 21.9274 47.7172 25.2551Z" fill="#3448FF" />
    <path fill-rule="evenodd" clip-rule="evenodd" d="M29.9087 31.1042C28.6971 32.3363 28.6971 34.3339 29.9087 35.5659L39.4951 45.3147C40.7067 46.5467 42.671 46.5467 43.8826 45.3147C45.0942 44.0826 45.0942 42.085 43.8826 40.853L34.2961 31.1042C33.0846 29.8722 31.1202 29.8722 29.9087 31.1042Z" fill="#5FCEFF" />
    <path fill-rule="evenodd" clip-rule="evenodd" d="M29.0669 32.6915C29.1857 32.1103 29.4669 31.5566 29.9105 31.1055L29.9476 31.0677C31.1619 29.8728 33.0988 29.8851 34.2981 31.1047L36.4921 33.3359L34.2979 35.5672C33.1012 36.7842 31.17 36.799 29.9552 35.6118L29.9106 35.5664C29.1428 34.7856 28.8616 33.6975 29.0669 32.6915Z" fill="#133AFF" style="mix-blend-mode:multiply" />
    <path fill-rule="evenodd" clip-rule="evenodd" d="M49.083 31.1042L39.4966 40.853C38.285 42.085 38.285 44.0826 39.4966 45.3147C40.7081 46.5467 42.6724 46.5467 43.884 45.3147L53.4705 35.5659C54.682 34.3339 54.682 32.3363 53.4705 31.1042C52.2589 29.8722 50.2946 29.8722 49.083 31.1042Z" fill="#00A8FF" />
    <path fill-rule="evenodd" clip-rule="evenodd" d="M43.9557 45.2406C45.0956 44.0037 45.0718 42.0611 43.8845 40.8536L41.6896 38.6216L39.4956 40.8527C38.2959 42.0727 38.2841 44.0432 39.4602 45.2779L39.497 45.3153C39.6755 45.4968 39.8703 45.6515 40.0766 45.7796C41.2707 46.5196 42.8503 46.3646 43.883 45.3144L43.9557 45.2406Z" fill="#0094FE" />
    <path fill-rule="evenodd" clip-rule="evenodd" d="M53.4182 35.6156C52.2031 36.7964 50.2766 36.7794 49.082 35.5646L46.8877 33.3332L49.0805 31.1032C50.292 29.8712 52.2564 29.8712 53.4679 31.1032C54.6795 32.3353 54.6795 34.3329 53.4679 35.565L53.4182 35.6156Z" fill="#002FFF" style="mix-blend-mode:multiply" />
    <path fill-rule="evenodd" clip-rule="evenodd" d="M136.895 25.0508C137.438 25.0508 137.933 25.093 138.381 25.1782C138.833 25.2641 139.238 25.3938 139.602 25.5723C139.837 25.6933 139.994 25.8889 140.017 26.1422L140.02 26.2067V27.1889C140.02 27.6397 139.669 27.929 139.237 27.729C138.655 27.4409 137.941 27.2946 137.093 27.2946C135.426 27.2946 134.642 28.0642 134.609 29.7404L134.607 29.8535L134.607 30.127L138.132 30.1271C138.438 30.1271 138.667 30.3164 138.729 30.6206L138.739 30.6829L138.745 30.7482V31.7498C138.745 32.0981 138.518 32.3409 138.194 32.3683L138.132 32.3709L134.607 32.3708L134.607 39.5198C134.607 39.8463 134.408 40.0802 134.116 40.1307L134.057 40.1383L133.995 40.1409H132.644C132.308 40.1409 132.062 39.9185 132.034 39.5839L132.031 39.5198V29.8535C132.031 28.4158 132.458 27.2446 133.315 26.3664C134.173 25.4862 135.375 25.0508 136.895 25.0508ZM143.306 25.9104C143.279 25.5768 143.043 25.3433 142.705 25.3433H141.345L141.282 25.346C140.957 25.3747 140.741 25.6285 140.741 25.9741V39.5206L140.744 39.5839C140.771 39.9151 141.011 40.1417 141.345 40.1417H142.705L142.766 40.1391C143.088 40.1112 143.308 39.8644 143.308 39.5206V25.9741L143.306 25.9104ZM67.633 28.3379C69.1059 28.3379 70.2795 28.6557 71.1453 29.3045C72.0138 29.9554 72.5853 30.8631 72.8535 32.0102C72.9523 32.4337 72.6994 32.7557 72.3089 32.7698L71.0337 32.7697C70.7614 32.7697 70.5624 32.599 70.4303 32.3265C69.9057 31.1487 69.0514 30.5817 67.8031 30.5817C66.9369 30.5817 66.2571 30.883 65.7329 31.4929C65.2039 32.1084 64.9301 33.0611 64.9301 34.3659C64.9301 35.6714 65.2057 36.6312 65.7394 37.2604C66.2695 37.8853 66.901 38.189 67.6614 38.189C68.4682 38.189 69.074 38.0424 69.4824 37.764C69.9013 37.4783 70.2502 37.0422 70.5308 36.441C70.6434 36.2093 70.8163 36.0485 71.0672 36.0088L71.1376 36.001H72.3562C72.689 36.001 72.9599 36.199 72.9699 36.5244L72.9689 36.5831C72.9689 36.639 72.9628 36.6958 72.9482 36.7693C72.6798 37.9313 72.1004 38.844 71.2166 39.4888C70.3389 40.1291 69.1482 40.4425 67.6519 40.4425C66.1312 40.4425 64.8584 39.9095 63.8594 38.8494C62.8582 37.787 62.3633 36.2863 62.3633 34.3708C62.3633 32.4542 62.8604 30.9589 63.8665 29.909C64.8683 28.8636 66.1322 28.3379 67.633 28.3379ZM150.635 28.3379C152.25 28.3379 153.572 28.8616 154.576 29.909C155.582 30.9589 156.079 32.4542 156.079 34.3708C156.079 36.2866 155.583 37.7875 154.578 38.8499C153.574 39.9114 152.249 40.4425 150.63 40.4425C149.017 40.4425 147.695 39.9113 146.692 38.8499C145.687 37.7875 145.19 36.2866 145.19 34.3708C145.19 32.4542 145.688 30.9589 146.694 29.909C147.697 28.8616 149.02 28.3379 150.635 28.3379ZM115.29 28.6475C114.494 28.441 113.667 28.3379 112.808 28.3379C111.225 28.3379 109.914 28.8376 108.899 29.8371C107.878 30.8424 107.368 32.2059 107.368 33.8991C107.368 35.5922 107.874 36.9525 108.89 37.9515C109.898 38.9439 111.18 39.4409 112.714 39.4409L112.928 39.4385L113.161 39.4301C113.854 39.396 114.497 39.2814 115.091 39.0858L115.179 39.0551L115.176 39.1007L115.162 39.2436C115.083 39.9457 114.883 40.4631 114.571 40.8023C114.165 41.2442 113.491 41.476 112.525 41.476C111.9 41.476 111.405 41.3497 111.033 41.1054C110.667 40.865 110.427 40.5571 110.301 40.1712C110.217 39.8834 109.988 39.6867 109.681 39.6867H108.463L108.404 39.6889C108.058 39.7151 107.816 39.9745 107.852 40.3502C107.967 41.3985 108.456 42.2377 109.303 42.8457C110.128 43.4383 111.205 43.7295 112.525 43.7295C115.974 43.7295 117.775 41.9476 117.775 38.5184V29.6955L117.028 29.2831L116.953 29.2397C116.588 29.0372 116.033 28.8404 115.29 28.6475ZM128.817 29.9382C127.796 28.8722 126.473 28.3379 124.876 28.3379C123.28 28.3379 121.967 28.862 120.963 29.909C119.957 30.9589 119.46 32.4542 119.46 34.3708C119.46 36.2862 119.957 37.7899 120.96 38.8587C121.962 39.9253 123.234 40.462 124.749 40.462C126.231 40.462 127.414 40.1558 128.291 39.5303C129.17 38.903 129.757 38.0543 130.041 36.9985C130.149 36.5566 129.88 36.2247 129.453 36.2247H128.234L128.171 36.2279C127.945 36.2514 127.774 36.4019 127.643 36.6263C127.068 37.6931 126.176 38.2085 124.9 38.2085C124.106 38.2085 123.468 37.9525 122.962 37.4371L122.887 37.3573L122.811 37.2673C122.462 36.8357 122.224 36.2417 122.103 35.4785L122.101 35.4633L129.547 35.4635L129.616 35.4613C130.064 35.4323 130.349 35.1157 130.349 34.6382V34.1423L130.347 33.9646C130.313 32.3171 129.804 30.9673 128.817 29.9382ZM95.6422 29.594C94.7582 28.752 93.5086 28.3379 91.9129 28.3379C90.6843 28.3379 89.6611 28.6348 88.8549 29.2359C88.0308 29.8502 87.5535 30.6804 87.4394 31.7012C87.4002 32.104 87.6725 32.3711 88.0494 32.3711H89.2679L89.3282 32.3685C89.6042 32.3443 89.8095 32.1542 89.8915 31.8726C90.0138 31.5113 90.2489 31.2026 90.6018 30.955C90.9549 30.7072 91.3883 30.5817 91.9129 30.5817L92.0232 30.5829L92.1361 30.5865C93.5861 30.6506 94.3064 31.3574 94.3976 32.8112L91.5256 32.8113L91.3487 32.813C90.004 32.8393 88.9302 33.1684 88.1375 33.8122C87.2896 34.5009 86.8604 35.4518 86.8604 36.6269C86.8604 37.799 87.2759 38.7494 88.0989 39.4419C88.9125 40.1134 89.9954 40.4426 91.3367 40.4426C92.2588 40.4426 93.0935 40.2418 93.835 39.8389L93.9755 39.7612L94.1161 39.676C94.2569 39.587 94.3977 39.487 94.5381 39.3763L94.6329 39.2991L94.6776 39.5871L94.689 39.6484C94.7573 39.9476 94.9929 40.1411 95.3041 40.1411H96.3621L96.424 40.1385C96.748 40.1112 96.9748 39.8683 96.9748 39.52V33.1406L96.973 32.9745C96.9414 31.5464 96.4995 30.4106 95.6422 29.594ZM77.4257 25.9104C77.3991 25.5768 77.1632 25.3433 76.8249 25.3433H75.4647L75.4025 25.346C75.0774 25.3747 74.8614 25.6285 74.8614 25.9741V39.5206L74.8639 39.5839C74.891 39.9151 75.1308 40.1417 75.4647 40.1417H76.8249L76.8864 40.1391L76.9455 40.1313C77.2348 40.08 77.4282 39.8429 77.4282 39.5206L77.4279 32.1625L77.5 32.0694L77.5858 31.9645L77.6924 31.839C77.9047 31.5924 78.2627 31.313 78.7637 31.0096C79.2368 30.7232 79.7157 30.5823 80.2067 30.5823C80.9077 30.5823 81.4696 30.8213 81.919 31.306C82.3679 31.7901 82.5979 32.4948 82.5979 33.4427V39.5206L82.6004 39.5839C82.6275 39.9151 82.8672 40.1417 83.2012 40.1417H84.5614L84.6229 40.1391C84.9446 40.1112 85.1647 39.8644 85.1647 39.5206V33.4427L85.163 33.2758C85.1316 31.7851 84.6759 30.5861 83.7919 29.7036C82.8806 28.7939 81.7091 28.3385 80.3012 28.3385C79.4601 28.3385 78.7001 28.5234 78.0272 28.8948L77.8931 28.9744L77.7585 29.0609C77.6685 29.1209 77.5782 29.1856 77.4872 29.2549L77.4279 29.301L77.4282 25.9741L77.4257 25.9104ZM106.516 28.4346C106.852 28.4346 107.098 28.657 107.126 28.9916L107.129 29.0557V30.2518C107.129 30.6017 106.906 30.8517 106.579 30.8799L106.516 30.8826H105.94C105.35 30.8826 104.811 30.9595 104.322 31.1122C103.834 31.2648 103.452 31.4451 103.181 31.6462C102.629 32.0627 102.267 32.4276 102.105 32.7093L102.075 32.7645L101.999 32.9322L102 39.5195C102 39.8417 101.806 40.0788 101.517 40.1301L101.458 40.1379L101.396 40.1405H100.036C99.702 40.1405 99.4623 39.9139 99.4352 39.5827L99.4327 39.5195V29.2599C99.4327 28.9143 99.6487 28.6605 99.9738 28.6318L100.036 28.6291H101.103C101.426 28.6291 101.66 28.8397 101.715 29.1502L101.723 29.2136L101.8 29.9457L101.832 29.9152C102.019 29.7293 102.222 29.561 102.439 29.4104L102.604 29.3008L102.746 29.2146C103.082 29.0184 103.513 28.8415 104.042 28.6806C104.521 28.5347 105.022 28.4538 105.545 28.4376L105.742 28.4346H106.516ZM158.988 29.0642C158.886 28.79 158.634 28.6286 158.322 28.6286H157.009L156.953 28.6306C156.656 28.6517 156.415 28.8411 156.415 29.1816L156.419 29.2515L156.426 29.2973C156.432 29.3275 156.44 29.3572 156.451 29.3862L156.46 29.4078L159.667 39.2559L159.71 39.3602C159.812 39.5948 159.926 39.7671 160.065 39.8929C160.257 40.0662 160.516 40.14 160.835 40.14H161.515L161.597 40.1379L161.682 40.1309C162.181 40.0747 162.538 39.7618 162.687 39.241L164.708 32.8293L166.757 39.3311C166.934 39.8481 167.342 40.14 167.9 40.14H168.581L168.674 40.1378C168.95 40.1243 169.178 40.0489 169.35 39.8929L169.409 39.835L169.465 39.7714C169.572 39.6384 169.661 39.4709 169.734 39.27L172.936 29.4372L172.949 29.4138L172.971 29.3591C172.99 29.3032 173 29.2438 173 29.1816C173 28.8198 172.729 28.6286 172.406 28.6286H171.093L171.027 28.6311L170.963 28.6384C170.691 28.6805 170.481 28.8576 170.402 29.1422L168.198 35.9557L166.169 29.5263L166.139 29.4418C165.938 28.9187 165.538 28.6286 165 28.6286H164.415L164.331 28.631L164.245 28.6387C163.766 28.6973 163.416 29.0088 163.248 29.5213L161.217 35.9557L158.988 29.0642ZM94.4075 35.0645L91.5252 35.0649C90.0588 35.0649 89.4268 35.5663 89.4268 36.6319C89.4268 37.1548 89.5829 37.522 89.8959 37.774C90.2333 38.0456 90.7414 38.1891 91.4307 38.1891C91.7979 38.1891 92.1511 38.1249 92.4927 37.9963C92.8425 37.8646 93.1234 37.7128 93.3359 37.5438C93.5694 37.3583 93.7765 37.1692 93.9575 36.9769L94.0827 36.8404C94.1789 36.7324 94.2547 36.639 94.309 36.5625L94.339 36.5187L94.4075 36.4112V35.0645ZM148.567 31.4936C149.094 30.883 149.773 30.5816 150.633 30.5816C151.499 30.5816 152.181 30.8831 152.708 31.4936C153.24 32.1091 153.515 33.0614 153.515 34.3658C153.515 35.6713 153.24 36.6311 152.706 37.2603C152.178 37.8823 151.499 38.1889 150.637 38.1889C149.776 38.1889 149.097 37.8823 148.569 37.2603C148.035 36.6311 147.76 35.6713 147.76 34.3658C147.76 33.0614 148.035 32.1091 148.567 31.4936ZM113.006 30.5816C112.066 30.5816 111.33 30.8691 110.772 31.4437C110.216 32.0157 109.935 32.8288 109.935 33.9087C109.935 34.9883 110.213 35.7943 110.761 36.3528C111.314 36.9166 112.015 37.197 112.888 37.197C113.677 37.197 114.414 37.0611 115.101 36.7897L115.199 36.7488V31.016L115.131 30.9879C115.016 30.9399 114.859 30.8883 114.661 30.8341L114.449 30.7789L114.21 30.7222C113.799 30.6283 113.397 30.5816 113.006 30.5816ZM122.967 31.3464C123.48 30.8349 124.112 30.5816 124.884 30.5816C125.654 30.5816 126.308 30.8571 126.867 31.4183L126.958 31.5134C127.37 31.9654 127.629 32.5263 127.735 33.2095H122.104L122.133 33.0527C122.281 32.3172 122.561 31.7514 122.967 31.3464Z" fill="#0F1C35" />
  </g>
</svg>