<?xml version="1.0" encoding="UTF-8"?>
<svg version="1.1" xmlns="http://www.w3.org/2000/svg" width="64" height="64">
<path d="M0 0 C8.04071716 5.46768767 14.35713546 11.78672485 16.953125 21.328125 C17.97008074 32.73931439 17.08780568 41.52074309 9.640625 50.578125 C3.75028057 56.89640044 -1.9995096 60.87830798 -10.81640625 61.6640625 C-22.23808647 61.92046185 -29.76998744 60.10045244 -38.2578125 52.1875 C-45.41707366 44.7468705 -47.46537447 37.63799487 -47.41040039 27.37304688 C-47.154444 17.46241552 -43.06295379 11.07888989 -36.046875 4.328125 C-26.55128048 -3.80505814 -11.27874483 -6.1129075 0 0 Z " fill="#242621" transform="translate(47.046875,2.671875)"/>
<path d="M0 0 C0.33 0.66 0.66 1.32 1 2 C0.67 2.66 0.34 3.32 0 4 C2.31 4.33 4.62 4.66 7 5 C7 4.01 7 3.02 7 2 C8.32 2.33 9.64 2.66 11 3 C11 4.65 11 6.3 11 8 C11.66 8 12.32 8 13 8 C13 5.36 13 2.72 13 0 C15.475 0.495 15.475 0.495 18 1 C18 1.66 18 2.32 18 3 C17.34 3 16.68 3 16 3 C16 3.66 16 4.32 16 5 C21.445 5.495 21.445 5.495 27 6 C27.495 7.485 27.495 7.485 28 9 C28.99 9 29.98 9 31 9 C31 9.66 31 10.32 31 11 C31.66 11 32.32 11 33 11 C32.44332303 15.45341573 31.62428665 19.6747584 30.4609375 24.0078125 C29.88656527 26.29293251 29.88656527 26.29293251 29.625 29.875 C29 33 29 33 26.9375 34.4375 C26.298125 34.623125 25.65875 34.80875 25 35 C24.505 31.535 24.505 31.535 24 28 C24.99 27.67 25.98 27.34 27 27 C27 25.68 27 24.36 27 23 C26.34 23 25.68 23 25 23 C24.67 24.32 24.34 25.64 24 27 C22.02 27 20.04 27 18 27 C18 26.34 18 25.68 18 25 C15.69 24.34 13.38 23.68 11 23 C10.67 25.64 10.34 28.28 10 31 C8.35 31.66 6.7 32.32 5 33 C4.97301811 34.62490954 4.95361243 36.24994633 4.9375 37.875 C4.92589844 38.77992187 4.91429688 39.68484375 4.90234375 40.6171875 C4.83750743 43.0168585 4.83750743 43.0168585 6 45 C3.6568787 44.74438677 1.32156597 44.40729228 -1 44 C-1.33 43.34 -1.66 42.68 -2 42 C-1.360625 41.87625 -0.72125 41.7525 -0.0625 41.625 C0.618125 41.41875 1.29875 41.2125 2 41 C2.33 40.34 2.66 39.68 3 39 C2.34 39 1.68 39 1 39 C0.505 36.525 0.505 36.525 0 34 C0.99 34 1.98 34 3 34 C2.34 33.01 1.68 32.02 1 31 C-1.20725073 30.63637182 -1.20725073 30.63637182 -3.625 30.8125 C-4.44226562 30.83957031 -5.25953125 30.86664063 -6.1015625 30.89453125 C-7.04128906 30.94673828 -7.04128906 30.94673828 -8 31 C-7.67 29.02 -7.34 27.04 -7 25 C-7.66 25 -8.32 25 -9 25 C-8.9278125 25.88300781 -8.855625 26.76601563 -8.78125 27.67578125 C-8.20421489 35.13716579 -7.86255665 42.51697331 -8 50 C-13.57247797 45.1805596 -15.69470783 40.58159839 -16.3203125 33.2421875 C-16.74377307 22.90901521 -15.28063525 15.71112441 -8.5625 7.6875 C-5.91384289 4.82763532 -3.16043273 2.29849653 0 0 Z " fill="#68493A" transform="translate(16,3)"/>
<path d="M0 0 C1.98 0 3.96 0 6 0 C8.61537297 3.95495425 8.44264274 8.16827373 8.625 12.75 C8.66367187 13.54277344 8.70234375 14.33554687 8.7421875 15.15234375 C8.836108 17.10119416 8.91912822 19.05056451 9 21 C6.23723823 20.47731534 3.6739124 19.89130413 1 19 C0.90912109 20.15628906 0.90912109 20.15628906 0.81640625 21.3359375 C0.73261719 22.33882812 0.64882813 23.34171875 0.5625 24.375 C0.48128906 25.37273438 0.40007813 26.37046875 0.31640625 27.3984375 C-0 30 -0 30 -1 32 C-4.62577002 33.35495904 -8.12978628 34.01577533 -12 34 C-14.9835646 32.5341167 -17.02583963 30.66325408 -19 28 C-20.01973129 24.94080612 -20.11533602 22.87581975 -20.09765625 19.67578125 C-20.09443359 18.64775391 -20.09121094 17.61972656 -20.08789062 16.56054688 C-20.07951172 15.48869141 -20.07113281 14.41683594 -20.0625 13.3125 C-20.05798828 12.22904297 -20.05347656 11.14558594 -20.04882812 10.02929688 C-20.03703743 7.35280915 -20.02058063 4.67643223 -20 2 C-19.34 2 -18.68 2 -18 2 C-18.33 3.98 -18.66 5.96 -19 8 C-14.545 7.505 -14.545 7.505 -10 7 C-9.34 8.32 -8.68 9.64 -8 11 C-8.99 11 -9.98 11 -11 11 C-10.67 12.65 -10.34 14.3 -10 16 C-9.34 16 -8.68 16 -8 16 C-8.33 16.99 -8.66 17.98 -9 19 C-9.99 19.33 -10.98 19.66 -12 20 C-10.02 20.33 -8.04 20.66 -6 21 C-6.33 20.67 -6.66 20.34 -7 20 C-7.01953125 17.78515625 -7.01953125 17.78515625 -6.8125 15.0625 C-6.75707031 14.16660156 -6.70164062 13.27070312 -6.64453125 12.34765625 C-6.43183594 11.57292969 -6.21914063 10.79820313 -6 10 C-4.68647026 9.29511572 -3.3520536 8.62783221 -2 8 C-1.09390008 6.06018382 -1.09390008 6.06018382 -0.75 3.875 C-0.5025 2.59625 -0.255 1.3175 0 0 Z " fill="#21221D" transform="translate(27,26)"/>
<path d="M0 0 C0.66 0.33 1.32 0.66 2 1 C2 1.66 2 2.32 2 3 C2.99 3.33 3.98 3.66 5 4 C4.01 4.495 4.01 4.495 3 5 C2.34 4.67 1.68 4.34 1 4 C1 4.66 1 5.32 1 6 C3.31 6 5.62 6 8 6 C8 6.99 8 7.98 8 9 C4.25 10.125 4.25 10.125 2 9 C2.33 10.32 2.66 11.64 3 13 C3.99 13 4.98 13 6 13 C5.67 13.66 5.34 14.32 5 15 C5.66 15 6.32 15 7 15 C7.33 14.34 7.66 13.68 8 13 C8.515625 13.185625 9.03125 13.37125 9.5625 13.5625 C12.86356405 14.15499868 15.69226917 13.50456911 19 13 C21.33303944 12.96296763 23.66715242 12.95239087 26 13 C23.56708467 20.06528443 18.30922962 25.0837959 11.6875 28.4375 C3.99121626 31.91878047 -5.59526434 32.28222694 -13.83203125 30.328125 C-16 29.5 -16 29.5 -19 28 C-18.67 27.34 -18.34 26.68 -18 26 C-15.0170339 25.40227901 -12.03669195 25.25662185 -9 25 C-8.34 20.71 -7.68 16.42 -7 12 C-4.33333333 12.66666667 -1.66666667 13.33333333 1 14 C0.83628906 13.44828125 0.67257813 12.8965625 0.50390625 12.328125 C-0.05760414 9.73385993 -0.09739008 7.40164589 -0.0625 4.75 C-0.05347656 3.85796875 -0.04445313 2.9659375 -0.03515625 2.046875 C-0.02355469 1.37140625 -0.01195313 0.6959375 0 0 Z " fill="#44423D" transform="translate(35,33)"/>
<path d="M0 0 C0.33 0.66 0.66 1.32 1 2 C0.67 2.66 0.34 3.32 0 4 C2.31 4.33 4.62 4.66 7 5 C7 4.01 7 3.02 7 2 C8.32 2.33 9.64 2.66 11 3 C11 4.65 11 6.3 11 8 C11.66 8 12.32 8 13 8 C13 5.36 13 2.72 13 0 C15.475 0.495 15.475 0.495 18 1 C18 1.66 18 2.32 18 3 C17.34 3 16.68 3 16 3 C16 3.66 16 4.32 16 5 C16.77085938 5.03738281 17.54171875 5.07476563 18.3359375 5.11328125 C19.33882812 5.17902344 20.34171875 5.24476562 21.375 5.3125 C22.87160156 5.39951172 22.87160156 5.39951172 24.3984375 5.48828125 C25.25695313 5.65714844 26.11546875 5.82601563 27 6 C29 9 29 9 28.625 11.1875 C28.41875 11.785625 28.2125 12.38375 28 13 C26.02 13 24.04 13 22 13 C21.67 13.99 21.34 14.98 21 16 C22.98 16 24.96 16 27 16 C26.505 17.485 26.505 17.485 26 19 C22.37 19 18.74 19 15 19 C15 18.34 15 17.68 15 17 C16.32 17 17.64 17 19 17 C18.67 15.68 18.34 14.36 18 13 C16.68 12.67 15.36 12.34 14 12 C14 14.97 14 17.94 14 21 C12.68 21 11.36 21 10 21 C10 22.98 10 24.96 10 27 C8.35 27 6.7 27 5 27 C5 23.7 5 20.4 5 17 C6.32 16.67 7.64 16.34 9 16 C1.74 15.67 -5.52 15.34 -13 15 C-11.20381863 10.50954657 -10.3477652 8.97540895 -7.0625 5.8125 C-6.02802734 4.80123047 -6.02802734 4.80123047 -4.97265625 3.76953125 C-3 2 -3 2 0 0 Z " fill="#7C7D80" transform="translate(16,3)"/>
<path d="M0 0 C4.39874542 3.01703214 8.20322793 6.58604043 11.96484375 10.34765625 C12.08984375 13.97265625 12.08984375 13.97265625 11.96484375 17.34765625 C8.66484375 17.34765625 5.36484375 17.34765625 1.96484375 17.34765625 C1.96484375 15.36765625 1.96484375 13.38765625 1.96484375 11.34765625 C1.30484375 11.34765625 0.64484375 11.34765625 -0.03515625 11.34765625 C-0.03515625 10.68765625 -0.03515625 10.02765625 -0.03515625 9.34765625 C-1.02515625 9.34765625 -2.01515625 9.34765625 -3.03515625 9.34765625 C-3.36515625 8.68765625 -3.69515625 8.02765625 -4.03515625 7.34765625 C-6.85114115 6.87866662 -6.85114115 6.87866662 -10.09765625 6.72265625 C-11.20238281 6.64789063 -12.30710937 6.573125 -13.4453125 6.49609375 C-14.29996094 6.44710938 -15.15460937 6.398125 -16.03515625 6.34765625 C-15.70515625 5.35765625 -15.37515625 4.36765625 -15.03515625 3.34765625 C-14.37515625 3.34765625 -13.71515625 3.34765625 -13.03515625 3.34765625 C-13.36515625 2.68765625 -13.69515625 2.02765625 -14.03515625 1.34765625 C-16.0597888 0.69552333 -16.0597888 0.69552333 -18.03515625 0.34765625 C-18.03515625 2.98765625 -18.03515625 5.62765625 -18.03515625 8.34765625 C-18.69515625 8.34765625 -19.35515625 8.34765625 -20.03515625 8.34765625 C-20.36515625 6.69765625 -20.69515625 5.04765625 -21.03515625 3.34765625 C-22.02515625 3.01765625 -23.01515625 2.68765625 -24.03515625 2.34765625 C-24.03515625 3.33765625 -24.03515625 4.32765625 -24.03515625 5.34765625 C-26.34515625 5.01765625 -28.65515625 4.68765625 -31.03515625 4.34765625 C-30.41015625 1.97265625 -30.41015625 1.97265625 -29.03515625 -0.65234375 C-20.61226611 -4.35081581 -8.16235836 -4.3710134 0 0 Z " fill="#242219" transform="translate(47.03515625,2.65234375)"/>
<path d="M0 0 C8.25 0 16.5 0 25 0 C24.34 0.66 23.68 1.32 23 2 C21.68 2 20.36 2 19 2 C18.67 2.66 18.34 3.32 18 4 C17.071875 3.9175 16.14375 3.835 15.1875 3.75 C11.92307226 3.63164734 11.92307226 3.63164734 10.3125 5.9375 C9.6628125 6.9584375 9.6628125 6.9584375 9 8 C8.01 8.33 7.02 8.66 6 9 C6 17.58 6 26.16 6 35 C-1.01747983 27.98252017 -2.24579215 23.4776501 -2.3125 13.875 C-2.31805908 13.19397217 -2.32361816 12.51294434 -2.3293457 11.8112793 C-2.26451723 7.25721748 -1.49930101 4.49790304 0 0 Z " fill="#717980" transform="translate(2,18)"/>
<path d="M0 0 C0.70382813 0.00128906 1.40765625 0.00257812 2.1328125 0.00390625 C7.45265727 0.10242189 11.3978306 0.9489153 16.125 3.3125 C15.135 3.8075 15.135 3.8075 14.125 4.3125 C13.795 5.3025 13.465 6.2925 13.125 7.3125 C10.485 6.3225 7.845 5.3325 5.125 4.3125 C4.795 5.3025 4.465 6.2925 4.125 7.3125 C6.435 7.6425 8.745 7.9725 11.125 8.3125 C11.125 8.6425 11.125 8.9725 11.125 9.3125 C7.165 9.3125 3.205 9.3125 -0.875 9.3125 C-0.545 8.3225 -0.215 7.3325 0.125 6.3125 C0.785 6.3125 1.445 6.3125 2.125 6.3125 C1.795 5.6525 1.465 4.9925 1.125 4.3125 C-0.89963255 3.66036708 -0.89963255 3.66036708 -2.875 3.3125 C-2.875 5.9525 -2.875 8.5925 -2.875 11.3125 C-3.535 11.3125 -4.195 11.3125 -4.875 11.3125 C-5.205 9.6625 -5.535 8.0125 -5.875 6.3125 C-6.865 5.9825 -7.855 5.6525 -8.875 5.3125 C-8.875 6.3025 -8.875 7.2925 -8.875 8.3125 C-11.185 7.9825 -13.495 7.6525 -15.875 7.3125 C-15.25 4.9375 -15.25 4.9375 -13.875 2.3125 C-9.30102953 0.29416664 -4.93331696 -0.03737361 0 0 Z " fill="#413A2A" transform="translate(31.875,-0.3125)"/>
<path d="M0 0 C1.65 0.33 3.3 0.66 5 1 C5 1.66 5 2.32 5 3 C4.34 3 3.68 3 3 3 C3 3.66 3 4.32 3 5 C3.77085938 5.03738281 4.54171875 5.07476563 5.3359375 5.11328125 C6.33882812 5.17902344 7.34171875 5.24476562 8.375 5.3125 C9.87160156 5.39951172 9.87160156 5.39951172 11.3984375 5.48828125 C12.25695313 5.65714844 13.11546875 5.82601563 14 6 C16 9 16 9 15.625 11.1875 C15.315625 12.0846875 15.315625 12.0846875 15 13 C13.02 13 11.04 13 9 13 C8.67 13.99 8.34 14.98 8 16 C9.98 16 11.96 16 14 16 C13.67 16.99 13.34 17.98 13 19 C9.37 19 5.74 19 2 19 C2 18.34 2 17.68 2 17 C3.32 17 4.64 17 6 17 C5.88693303 15.04105639 5.88693303 15.04105639 5 13 C3.34795544 12.29788106 1.68076231 11.63028587 0 11 C-1.35015859 6.94952424 -0.62084998 4.2079832 0 0 Z " fill="#9C7968" transform="translate(29,3)"/>
<path d="M0 0 C0.66 0 1.32 0 2 0 C1.67 1.98 1.34 3.96 1 6 C4.63 6 8.26 6 12 6 C13 11 13 11 12 13 C-3.74487472 13.55353075 -3.74487472 13.55353075 -11 10 C-10.67 9.34 -10.34 8.68 -10 8 C-7.93359375 7.5859375 -7.93359375 7.5859375 -5.4375 7.375 C-4.61121094 7.30023438 -3.78492188 7.22546875 -2.93359375 7.1484375 C-1.97646484 7.07496094 -1.97646484 7.07496094 -1 7 C-0.67 4.69 -0.34 2.38 0 0 Z " fill="#938C8B" transform="translate(27,51)"/>
<path d="M0 0 C0.66 0 1.32 0 2 0 C2 0.66 2 1.32 2 2 C3.65 1.67 5.3 1.34 7 1 C7.68271293 9.35104207 8.15392039 17.61988971 8 26 C3.71588153 22.29481646 1.12940898 18.66497205 0 13 C-0.22930475 8.65317945 -0.17895148 4.34785816 0 0 Z " fill="#44423A" transform="translate(0,27)"/>
<path d="M0 0 C6.57791873 0.41044485 12.74051886 0.86608597 19 3 C19.33 4.65 19.66 6.3 20 8 C17.72923158 8.02699725 15.45837179 8.04639453 13.1875 8.0625 C11.29064453 8.07990234 11.29064453 8.07990234 9.35546875 8.09765625 C6 8 6 8 3 7 C2.67 6.34 2.34 5.68 2 5 C1.01 4.67 0.02 4.34 -1 4 C-0.67 2.68 -0.34 1.36 0 0 Z " fill="#BFBDAF" transform="translate(10,9)"/>
<path d="M0 0 C3.125 -0.1875 3.125 -0.1875 6 0 C7.76462683 3.08809695 8 4.23312136 8 8 C7.34 8 6.68 8 6 8 C6 8.66 6 9.32 6 10 C3.69 10.33 1.38 10.66 -1 11 C-1.33 10.01 -1.66 9.02 -2 8 C-2.33 8.99 -2.66 9.98 -3 11 C-3.66 11 -4.32 11 -5 11 C-5.33 11.66 -5.66 12.32 -6 13 C-5.67 11.02 -5.34 9.04 -5 7 C-5.66 6.67 -6.32 6.34 -7 6 C-6.21625 5.566875 -5.4325 5.13375 -4.625 4.6875 C-1.78301625 3.10779753 -1.78301625 3.10779753 0 0 Z " fill="#6E513E" transform="translate(14,21)"/>
<path d="M0 0 C0.66 0.33 1.32 0.66 2 1 C2 1.99 2 2.98 2 4 C4.3431213 3.74438677 6.67843403 3.40729228 9 3 C9.33 2.34 9.66 1.68 10 1 C11.65 1.33 13.3 1.66 15 2 C14.67 3.65 14.34 5.3 14 7 C12.68 7.33 11.36 7.66 10 8 C9.97301811 9.62490954 9.95361243 11.24994633 9.9375 12.875 C9.92589844 13.77992187 9.91429687 14.68484375 9.90234375 15.6171875 C9.83750743 18.0168585 9.83750743 18.0168585 11 20 C8.6568787 19.74438677 6.32156597 19.40729228 4 19 C3.67 18.34 3.34 17.68 3 17 C3.639375 16.87625 4.27875 16.7525 4.9375 16.625 C5.618125 16.41875 6.29875 16.2125 7 16 C7.33 15.34 7.66 14.68 8 14 C7.34 14 6.68 14 6 14 C5.67 12.35 5.34 10.7 5 9 C5.99 9 6.98 9 8 9 C7.34 8.01 6.68 7.02 6 6 C4.02252878 5.63702064 4.02252878 5.63702064 1.875 5.8125 C0.59625 5.874375 -0.6825 5.93625 -2 6 C-2 5.34 -2 4.68 -2 4 C-1.34 4 -0.68 4 0 4 C0 2.68 0 1.36 0 0 Z " fill="#7D706A" transform="translate(11,28)"/>
<path d="M0 0 C5.28 0.33 10.56 0.66 16 1 C16 4.96 16 8.92 16 13 C13.69 13 11.38 13 9 13 C8.87625 12.21625 8.7525 11.4325 8.625 10.625 C8.20882007 7.85942178 8.20882007 7.85942178 6 6 C6 5.34 6 4.68 6 4 C4.02 3.01 2.04 2.02 0 1 C0 0.67 0 0.34 0 0 Z " fill="#272A26" transform="translate(48,24)"/>
<path d="M0 0 C0.33 0.66 0.66 1.32 1 2 C0.67 2.66 0.34 3.32 0 4 C2.31 4.33 4.62 4.66 7 5 C7 4.01 7 3.02 7 2 C8.32 2.33 9.64 2.66 11 3 C11 4.65 11 6.3 11 8 C9.10388566 7.85786703 7.20811606 7.71113093 5.3125 7.5625 C4.25675781 7.48128906 3.20101563 7.40007813 2.11328125 7.31640625 C-0.65086297 7.03548319 -3.28945741 6.59843148 -6 6 C-4 4 -2 2 0 0 Z M-8 7 C-7.67 7.99 -7.34 8.98 -7 10 C-4.98491642 10.73323796 -4.98491642 10.73323796 -3 11 C-3 11.66 -3 12.32 -3 13 C-2.01 13.33 -1.02 13.66 0 14 C-2.97 14 -5.94 14 -9 14 C-9 13.01 -9 12.02 -9 11 C-9.66 10.67 -10.32 10.34 -11 10 C-10.01 9.01 -9.02 8.02 -8 7 Z " fill="#AAA797" transform="translate(16,3)"/>
<path d="M0 0 C1.09570312 0.00902344 2.19140625 0.01804688 3.3203125 0.02734375 C4.16335937 0.03894531 5.00640625 0.05054688 5.875 0.0625 C3.56363636 6.09772727 3.56363636 6.09772727 0.875 8.0625 C-0.445 8.0625 -1.765 8.0625 -3.125 8.0625 C-3.455 7.4025 -3.785 6.7425 -4.125 6.0625 C-4.455 7.3825 -4.785 8.7025 -5.125 10.0625 C-6.775 9.7325 -8.425 9.4025 -10.125 9.0625 C-10.125 8.4025 -10.125 7.7425 -10.125 7.0625 C-9.465 7.0625 -8.805 7.0625 -8.125 7.0625 C-8.125 5.0825 -8.125 3.1025 -8.125 1.0625 C-5.36047967 -0.31976016 -3.0788637 -0.03275387 0 0 Z " fill="#404142" transform="translate(55.125,45.9375)"/>
<path d="M0 0 C0.66 0 1.32 0 2 0 C2.125 5.75 2.125 5.75 1 8 C2.65 8.33 4.3 8.66 6 9 C6 6.69 6 4.38 6 2 C8 5 8 5 8 7 C8.99 7.33 9.98 7.66 11 8 C3.88610478 14.70387244 3.88610478 14.70387244 -1 15 C-1.99 13.35 -2.98 11.7 -4 10 C-3.01 9.67 -2.02 9.34 -1 9 C-0.67 6.03 -0.34 3.06 0 0 Z " fill="#6A6867" transform="translate(44,47)"/>
<path d="M0 0 C0.66 0.33 1.32 0.66 2 1 C2 1.66 2 2.32 2 3 C2.99 3.33 3.98 3.66 5 4 C4.01 4.495 4.01 4.495 3 5 C2.34 4.67 1.68 4.34 1 4 C1 4.66 1 5.32 1 6 C3.31 6 5.62 6 8 6 C8 6.99 8 7.98 8 9 C4.25 10.125 4.25 10.125 2 9 C2.33 10.32 2.66 11.64 3 13 C3.99 13 4.98 13 6 13 C5.67 13.66 5.34 14.32 5 15 C5.99 15 6.98 15 8 15 C7.67 15.66 7.34 16.32 7 17 C6.21625 16.814375 5.4325 16.62875 4.625 16.4375 C2.02910225 15.74037734 2.02910225 15.74037734 0 17 C-0.66 16.67 -1.32 16.34 -2 16 C-1.67 17.32 -1.34 18.64 -1 20 C-1.99 19.67 -2.98 19.34 -4 19 C-4 17.35 -4 15.7 -4 14 C-2.35 14 -0.7 14 1 14 C0.83628906 13.44828125 0.67257813 12.8965625 0.50390625 12.328125 C-0.05760414 9.73385993 -0.09739008 7.40164589 -0.0625 4.75 C-0.05347656 3.85796875 -0.04445312 2.9659375 -0.03515625 2.046875 C-0.02355469 1.37140625 -0.01195312 0.6959375 0 0 Z " fill="#6D685C" transform="translate(35,33)"/>
<path d="M0 0 C1.65 0.33 3.3 0.66 5 1 C5 2.32 5 3.64 5 5 C3.68 5 2.36 5 1 5 C1 5.66 1 6.32 1 7 C1.78375 7.12375 2.5675 7.2475 3.375 7.375 C6 8 6 8 8 10 C6.68 10 5.36 10 4 10 C4 10.66 4 11.32 4 12 C5.65 12 7.3 12 9 12 C9 12.66 9 13.32 9 14 C7.35 14.33 5.7 14.66 4 15 C4 14.34 4 13.68 4 13 C1.69 12.34 -0.62 11.68 -3 11 C-3 12.65 -3 14.3 -3 16 C-3.33 16 -3.66 16 -4 16 C-4 13.69 -4 11.38 -4 9 C-2.68 9 -1.36 9 0 9 C0 6.03 0 3.06 0 0 Z " fill="#523E31" transform="translate(30,15)"/>
<path d="M0 0 C0.66 0 1.32 0 2 0 C2 0.66 2 1.32 2 2 C2.66 2 3.32 2 4 2 C3.44332303 6.45341573 2.62428665 10.6747584 1.4609375 15.0078125 C0.88656527 17.29293251 0.88656527 17.29293251 0.625 20.875 C0 24 0 24 -2.0625 25.4375 C-2.701875 25.623125 -3.34125 25.80875 -4 26 C-4.33 23.69 -4.66 21.38 -5 19 C-4.01 18.67 -3.02 18.34 -2 18 C-1.03929566 15.11788698 -0.89418117 13.30149956 -0.9375 10.3125 C-0.94652344 9.50425781 -0.95554687 8.69601563 -0.96484375 7.86328125 C-0.97644531 7.24839844 -0.98804688 6.63351563 -1 6 C-0.34 6 0.32 6 1 6 C0.67 4.02 0.34 2.04 0 0 Z " fill="#6C4D3F" transform="translate(45,12)"/>
<path d="M0 0 C0.66 0 1.32 0 2 0 C1.67 1.98 1.34 3.96 1 6 C2.98 6.495 2.98 6.495 5 7 C5.33 8.98 5.66 10.96 6 13 C5.01 13.33 4.02 13.66 3 14 C3.18433594 14.57234375 3.36867188 15.1446875 3.55859375 15.734375 C4.28163726 19.44557179 3.02067687 22.39761105 2 26 C-0.23413013 22.64880481 -0.23847762 21.5822245 -0.1953125 17.67578125 C-0.18886719 16.64775391 -0.18242188 15.61972656 -0.17578125 14.56054688 C-0.15064453 12.95276367 -0.15064453 12.95276367 -0.125 11.3125 C-0.11597656 10.22904297 -0.10695313 9.14558594 -0.09765625 8.02929688 C-0.0740734 5.3526429 -0.04116126 2.67643203 0 0 Z " fill="#302F27" transform="translate(7,28)"/>
<path d="M0 0 C0.66 0.33 1.32 0.66 2 1 C2.05399736 2.45792884 2.09279177 3.91642712 2.125 5.375 C2.14820313 6.18710937 2.17140625 6.99921875 2.1953125 7.8359375 C2 10 2 10 0 12 C0.33 12.99 0.66 13.98 1 15 C1 15.66 1 16.32 1 17 C-0.32 17.33 -1.64 17.66 -3 18 C-3.33 13.38 -3.66 8.76 -4 4 C-2.68 3.34 -1.36 2.68 0 2 C0 1.34 0 0.68 0 0 Z " fill="#4F4740" transform="translate(42,46)"/>
<path d="M0 0 C0.66 0 1.32 0 2 0 C1.85691406 1.03060547 1.85691406 1.03060547 1.7109375 2.08203125 C1.54464844 3.43361328 1.54464844 3.43361328 1.375 4.8125 C1.25898438 5.70582031 1.14296875 6.59914063 1.0234375 7.51953125 C0.76499257 10.25690391 0.76499257 10.25690391 3 13 C-1.97093824 12.58846263 -6.44508386 12.20399168 -11 10 C-10.67 9.34 -10.34 8.68 -10 8 C-7.93359375 7.5859375 -7.93359375 7.5859375 -5.4375 7.375 C-4.61121094 7.30023438 -3.78492188 7.22546875 -2.93359375 7.1484375 C-1.97646484 7.07496094 -1.97646484 7.07496094 -1 7 C-0.67 4.69 -0.34 2.38 0 0 Z " fill="#776E66" transform="translate(27,51)"/>
<path d="M0 0 C1.65 0 3.3 0 5 0 C4.34 1.32 3.68 2.64 3 4 C4.32 4 5.64 4 7 4 C7 4.99 7 5.98 7 7 C10.63 7 14.26 7 18 7 C17.67 6.01 17.34 5.02 17 4 C14.525 3.505 14.525 3.505 12 3 C12 2.67 12 2.34 12 2 C14.875 1.8125 14.875 1.8125 18 2 C20 5 20 5 20 8 C17.72923158 8.02699725 15.45837179 8.04639453 13.1875 8.0625 C11.29064453 8.07990234 11.29064453 8.07990234 9.35546875 8.09765625 C6 8 6 8 3 7 C2.67 6.34 2.34 5.68 2 5 C1.01 4.67 0.02 4.34 -1 4 C-0.67 2.68 -0.34 1.36 0 0 Z " fill="#B0AD9C" transform="translate(10,9)"/>
<path d="M0 0 C1.62418745 -0.08090971 3.24951745 -0.13914995 4.875 -0.1875 C5.77992187 -0.22230469 6.68484375 -0.25710938 7.6171875 -0.29296875 C8.79667969 -0.14794922 8.79667969 -0.14794922 10 0 C12 3 12 3 11.625 5.1875 C11.41875 5.785625 11.2125 6.38375 11 7 C9.35 6.67 7.7 6.34 6 6 C6 5.34 6 4.68 6 4 C4.35 4.33 2.7 4.66 1 5 C0.67 3.35 0.34 1.7 0 0 Z " fill="#8D6757" transform="translate(33,9)"/>
<path d="M0 0 C0.33 0.99 0.66 1.98 1 3 C0.34 3.495 -0.32 3.99 -1 4.5 C-3.8827217 8.10340212 -3.30200997 10.46985042 -3 15 C-4.65 15 -6.3 15 -8 15 C-8 14.34 -8 13.68 -8 13 C-7.01 13 -6.02 13 -5 13 C-5.66 12.401875 -6.32 11.80375 -7 11.1875 C-9 9 -9 9 -9 6 C-7.35 5.67 -5.7 5.34 -4 5 C-3.67 4.01 -3.34 3.02 -3 2 C-2.01 1.34 -1.02 0.68 0 0 Z " fill="#3F2E22" transform="translate(44,24)"/>
<path d="M0 0 C0.33 0.66 0.66 1.32 1 2 C0.67 2.66 0.34 3.32 0 4 C2.31 4.33 4.62 4.66 7 5 C7 4.01 7 3.02 7 2 C8.32 2.33 9.64 2.66 11 3 C11 4.65 11 6.3 11 8 C9.35 8 7.7 8 6 8 C6 7.34 6 6.68 6 6 C2.37 5.67 -1.26 5.34 -5 5 C-3.35 3.35 -1.7 1.7 0 0 Z " fill="#777667" transform="translate(16,3)"/>
<path d="M0 0 C1.4540625 0.0309375 1.4540625 0.0309375 2.9375 0.0625 C3.5975 1.3825 4.2575 2.7025 4.9375 4.0625 C3.9475 5.5475 3.9475 5.5475 2.9375 7.0625 C1.6175 5.7425 0.2975 4.4225 -1.0625 3.0625 C-0.4025 4.3825 0.2575 5.7025 0.9375 7.0625 C0.2775 7.0625 -0.3825 7.0625 -1.0625 7.0625 C-1.3925 7.7225 -1.7225 8.3825 -2.0625 9.0625 C-3.625 7.875 -3.625 7.875 -5.0625 6.0625 C-4.49385346 0.0917113 -4.49385346 0.0917113 0 0 Z " fill="#6A4C3D" transform="translate(17.0625,20.9375)"/>
<path d="M0 0 C1.65 0.33 3.3 0.66 5 1 C5 1.66 5 2.32 5 3 C4.34 3 3.68 3 3 3 C3.66 5.64 4.32 8.28 5 11 C3.68 11.33 2.36 11.66 1 12 C-1.83022097 8.00439392 -0.76210446 4.57262677 0 0 Z " fill="#7D5D41" transform="translate(29,3)"/>
<path d="M0 0 C5.28 0.33 10.56 0.66 16 1 C16 2.65 16 4.3 16 6 C14.08191891 5.54762239 12.16557967 5.08785537 10.25 4.625 C9.18265625 4.36976562 8.1153125 4.11453125 7.015625 3.8515625 C4.44147278 3.12466459 2.32399814 2.2973776 0 1 C0 0.67 0 0.34 0 0 Z " fill="#555854" transform="translate(48,24)"/>
<path d="M0 0 C3.44216672 2.6598561 3.99504674 5.90288286 5 10 C2.36 10 -0.28 10 -3 10 C-2.67 8.68 -2.34 7.36 -2 6 C-2.99 5.67 -3.98 5.34 -5 5 C-3.35 5 -1.7 5 0 5 C0 3.35 0 1.7 0 0 Z " fill="#433F2F" transform="translate(59,15)"/>
<path d="M0 0 C4.455 0.99 4.455 0.99 9 2 C8.67 3.32 8.34 4.64 8 6 C5.98177083 5.96744792 3.96354167 5.93489583 1.9453125 5.90234375 C-0.08185404 5.87350758 -0.08185404 5.87350758 -2 7 C-1.125 2.25 -1.125 2.25 0 0 Z " fill="#3D3827" transform="translate(48,19)"/>
<path d="M0 0 C-0.33 1.98 -0.66 3.96 -1 6 C-5.455 6.495 -5.455 6.495 -10 7 C-10.33 6.34 -10.66 5.68 -11 5 C-9.35 4.67 -7.7 4.34 -6 4 C-6.66 2.68 -7.32 1.36 -8 0 C-4.71023192 -1.09658936 -3.28696233 -0.79953138 0 0 Z " fill="#282B26" transform="translate(63,40)"/>
<path d="M0 0 C0.33 0.66 0.66 1.32 1 2 C0.06421005 4.35981813 -0.93347808 6.69631264 -2 9 C-3.32 8.67 -4.64 8.34 -6 8 C-5.01 8 -4.02 8 -3 8 C-3 7.34 -3 6.68 -3 6 C-4.65 6 -6.3 6 -8 6 C-8 5.34 -8 4.68 -8 4 C-7.34 3.67 -6.68 3.34 -6 3 C-6.33 2.34 -6.66 1.68 -7 1 C-3.535 0.505 -3.535 0.505 0 0 Z " fill="#7E5E50" transform="translate(42,21)"/>
<path d="M0 0 C2.06154407 3.09231611 2.22394445 3.60758887 2.0625 7.0625 C1.70056433 10.78558927 1.70056433 10.78558927 3 13 C0.6568787 12.74438677 -1.67843403 12.40729228 -4 12 C-4.33 11.34 -4.66 10.68 -5 10 C-4.360625 9.87625 -3.72125 9.7525 -3.0625 9.625 C-2.381875 9.41875 -1.70125 9.2125 -1 9 C-0.67 8.34 -0.34 7.68 0 7 C-0.66 7 -1.32 7 -2 7 C-2.33 5.35 -2.66 3.7 -3 2 C-2.01 2 -1.02 2 0 2 C0 1.34 0 0.68 0 0 Z " fill="#444749" transform="translate(19,35)"/>
<path d="M0 0 C0.66 0.66 1.32 1.32 2 2 C2.99 2 3.98 2 5 2 C4.67 2.66 4.34 3.32 4 4 C4.99 4 5.98 4 7 4 C6.67 4.66 6.34 5.32 6 6 C5.21625 5.814375 4.4325 5.62875 3.625 5.4375 C1.02910225 4.74037734 1.02910225 4.74037734 -1 6 C-1.66 5.67 -2.32 5.34 -3 5 C-2.67 6.32 -2.34 7.64 -2 9 C-2.99 8.67 -3.98 8.34 -5 8 C-5 6.35 -5 4.7 -5 3 C-3.35 3 -1.7 3 0 3 C0 2.01 0 1.02 0 0 Z " fill="#74716D" transform="translate(36,44)"/>
<path d="M0 0 C0.33 0 0.66 0 1 0 C1.33 4.62 1.66 9.24 2 14 C-1.53586014 10.82679218 -3.58578031 8.83256305 -4 4 C-3.34 4 -2.68 4 -2 4 C-1.34 2.68 -0.68 1.36 0 0 Z " fill="#878585" transform="translate(6,39)"/>
<path d="M0 0 C1.65 0.33 3.3 0.66 5 1 C5 2.32 5 3.64 5 5 C3.68 5 2.36 5 1 5 C1 5.66 1 6.32 1 7 C1.99 7.33 2.98 7.66 4 8 C3.01 8 2.02 8 1 8 C1 8.66 1 9.32 1 10 C-0.65 10 -2.3 10 -4 10 C-2.68 9.67 -1.36 9.34 0 9 C0 6.03 0 3.06 0 0 Z " fill="#73584A" transform="translate(30,15)"/>
<path d="M0 0 C-0.33 1.65 -0.66 3.3 -1 5 C-4.63 5.66 -8.26 6.32 -12 7 C-5 0 -5 0 0 0 Z " fill="#373623" transform="translate(27,53)"/>
<path d="M0 0 C2.31 0 4.62 0 7 0 C5.75023244 3.65316671 5.32901247 4.78065836 2 7 C2 6.34 2 5.68 2 5 C1.01 5.33 0.02 5.66 -1 6 C-0.67 4.02 -0.34 2.04 0 0 Z " fill="#4D4C4C" transform="translate(54,46)"/>
<path d="M0 0 C-0.33 1.65 -0.66 3.3 -1 5 C-2.65 5.33 -4.3 5.66 -6 6 C-6 5.34 -6 4.68 -6 4 C-6.66 4 -7.32 4 -8 4 C-8 3.01 -8 2.02 -8 1 C-5.23735711 0.40267181 -2.83967231 0 0 0 Z " fill="#B2AEA3" transform="translate(8,23)"/>
<path d="M0 0 C0.66 0 1.32 0 2 0 C2 0.99 2 1.98 2 3 C9.26 3 16.52 3 24 3 C24 3.33 24 3.66 24 4 C15.42 4 6.84 4 -2 4 C-1.34 2.68 -0.68 1.36 0 0 Z " fill="#848B8C" transform="translate(5,14)"/>
<path d="M0 0 C0 2.31 0 4.62 0 7 C-2.31 6.67 -4.62 6.34 -7 6 C-6.1875 3.5625 -6.1875 3.5625 -5 1 C-2 0 -2 0 0 0 Z " fill="#34342A" transform="translate(23,1)"/>
<path d="M0 0 C0.66 0 1.32 0 2 0 C2 0.66 2 1.32 2 2 C3.32 1.67 4.64 1.34 6 1 C6 3.64 6 6.28 6 9 C4.68 9 3.36 9 2 9 C2.33 7.35 2.66 5.7 3 4 C2.01 4 1.02 4 0 4 C0 2.68 0 1.36 0 0 Z " fill="#5D554F" transform="translate(0,27)"/>
<path d="M0 0 C0.66 0.33 1.32 0.66 2 1 C2 3.64 2 6.28 2 9 C1.01 8.67 0.02 8.34 -1 8 C-2.1875 4.4375 -2.1875 4.4375 -3 1 C-2.01 0.67 -1.02 0.34 0 0 Z " fill="#353431" transform="translate(36,48)"/>
<path d="M0 0 C-0.66 1.32 -1.32 2.64 -2 4 C-4.475 3.01 -4.475 3.01 -7 2 C-7 1.01 -7 0.02 -7 -1 C-3.51418144 -2.2020064 -3.32007656 -2.21338437 0 0 Z " fill="#6E5B57" transform="translate(37,60)"/>
<path d="M0 0 C3.63 0.33 7.26 0.66 11 1 C6.63636364 5 6.63636364 5 3.8125 5 C2 4 2 4 0 0 Z " fill="#9C8C7B" transform="translate(40,57)"/>
<path d="M0 0 C0.28875 0.639375 0.5775 1.27875 0.875 1.9375 C1.82823451 4.15206079 1.82823451 4.15206079 4 5 C3.67 5.66 3.34 6.32 3 7 C3.33 7.99 3.66 8.98 4 10 C4 10.66 4 11.32 4 12 C2.68 12.33 1.36 12.66 0 13 C-1.28571429 4.57142857 -1.28571429 4.57142857 0 0 Z " fill="#635A53" transform="translate(39,51)"/>
<path d="M0 0 C0.66 0.33 1.32 0.66 2 1 C2 2.32 2 3.64 2 5 C2.66 5 3.32 5 4 5 C4 5.99 4 6.98 4 8 C2.68 8 1.36 8 0 8 C-0.66 5.69 -1.32 3.38 -2 1 C-1.34 0.67 -0.68 0.34 0 0 Z " fill="#4A423C" transform="translate(52,46)"/>
<path d="M0 0 C3.55780196 0.60990891 6.6828589 1.5783681 10 3 C7 4 7 4 4 3 C3.67 3.99 3.34 4.98 3 6 C1.5 4.6875 1.5 4.6875 0 3 C0 2.01 0 1.02 0 0 Z " fill="#30312B" transform="translate(54,27)"/>
<path d="M0 0 C1.98 0 3.96 0 6 0 C6.33 0.99 6.66 1.98 7 3 C4.69 3.66 2.38 4.32 0 5 C0 3.35 0 1.7 0 0 Z " fill="#2D2D23" transform="translate(27,26)"/>
<path d="M0 0 C2.64 0.33 5.28 0.66 8 1 C8 1.66 8 2.32 8 3 C8.99 3.33 9.98 3.66 11 4 C8.03 4 5.06 4 2 4 C2 3.01 2 2.02 2 1 C1.34 0.67 0.68 0.34 0 0 Z " fill="#979993" transform="translate(5,13)"/>
<path d="M0 0 C2.9719385 1.12451727 5.33440687 2.22293791 8 4 C8 4.66 8 5.32 8 6 C7.34 6 6.68 6 6 6 C5.67 6.66 5.34 7.32 5 8 C4.01 7.67 3.02 7.34 2 7 C2.33 5.35 2.66 3.7 3 2 C2.01 1.67 1.02 1.34 0 1 C0 0.67 0 0.34 0 0 Z " fill="#7C5947" transform="translate(14,23)"/>
<path d="M0 0 C1.0326802 2.78823655 1.04509293 3.8677274 0.0625 6.75 C-0.288125 7.4925 -0.63875 8.235 -1 9 C-2.38111722 6.7252187 -3.05694702 5.49828639 -2.75 2.8125 C-2 1 -2 1 0 0 Z " fill="#72523E" transform="translate(43,29)"/>
<path d="M0 0 C0.33 0 0.66 0 1 0 C1.33 4.62 1.66 9.24 2 14 C1.67 13.01 1.34 12.02 1 11 C0.01 10.67 -0.98 10.34 -2 10 C-2 9.34 -2 8.68 -2 8 C-1.34 8 -0.68 8 0 8 C0 5.36 0 2.72 0 0 Z " fill="#454034" transform="translate(6,28)"/>
<path d="M0 0 C2.1519437 3.22791555 2.20086443 4.28400809 2 8 C0.35 8 -1.3 8 -3 8 C-3 7.34 -3 6.68 -3 6 C-2.01 6 -1.02 6 0 6 C-0.66 5.34 -1.32 4.68 -2 4 C-1.34 2.68 -0.68 1.36 0 0 Z " fill="#4D3A2C" transform="translate(39,31)"/>
<path d="M0 0 C0.66 0.33 1.32 0.66 2 1 C1.67 1.33 1.34 1.66 1 2 C3.31 2.33 5.62 2.66 8 3 C8 3.33 8 3.66 8 4 C4.04 4 0.08 4 -4 4 C-3.67 3.01 -3.34 2.02 -3 1 C-2.01 0.67 -1.02 0.34 0 0 Z " fill="#312C22" transform="translate(35,5)"/>
<path d="M0 0 C2.475 0.495 2.475 0.495 5 1 C5 1.66 5 2.32 5 3 C4.34 3 3.68 3 3 3 C2.67 3.99 2.34 4.98 2 6 C1.34 5.67 0.68 5.34 0 5 C0 3.35 0 1.7 0 0 Z " fill="#A7A89C" transform="translate(29,3)"/>
<path d="M0 0 C3.465 1.485 3.465 1.485 7 3 C7.33 2.34 7.66 1.68 8 1 C8.66 1.66 9.32 2.32 10 3 C9.34 3 8.68 3 8 3 C7.67 3.99 7.34 4.98 7 6 C4.69 5.01 2.38 4.02 0 3 C0 2.01 0 1.02 0 0 Z " fill="#363023" transform="translate(38,1)"/>
<path d="M0 0 C1.98 0.495 1.98 0.495 4 1 C3.67 2.65 3.34 4.3 3 6 C1.68 5.67 0.36 5.34 -1 5 C-0.67 3.35 -0.34 1.7 0 0 Z " fill="#A1978F" transform="translate(36,58)"/>
<path d="M0 0 C2 3 2 3 2 5 C2.99 5.33 3.98 5.66 5 6 C3.68 6.99 2.36 7.98 1 9 C-0.4783226 6.04335481 -0.06032783 3.25770263 0 0 Z " fill="#908883" transform="translate(50,49)"/>
<path d="M0 0 C1.98 0 3.96 0 6 0 C6 0.99 6 1.98 6 3 C4.68 3 3.36 3 2 3 C1.67 3.66 1.34 4.32 1 5 C0.67 3.35 0.34 1.7 0 0 Z " fill="#2C2B23" transform="translate(37,42)"/>
<path d="M0 0 C0.33 0 0.66 0 1 0 C0.67 3.96 0.34 7.92 0 12 C-0.99 12 -1.98 12 -3 12 C-2.67 11.01 -2.34 10.02 -2 9 C-2.020625 8.195625 -2.04125 7.39125 -2.0625 6.5625 C-1.99528709 3.80677058 -1.38913024 2.34415727 0 0 Z " fill="#5C4536" transform="translate(45,24)"/>
<path d="M0 0 C1.2684375 0.12375 1.2684375 0.12375 2.5625 0.25 C3.2225 1.24 3.8825 2.23 4.5625 3.25 C1.6875 3.375 1.6875 3.375 -1.4375 3.25 C-2.0975 2.59 -2.7575 1.93 -3.4375 1.25 C-2.4375 0.25 -2.4375 0.25 0 0 Z " fill="#775647" transform="translate(25.4375,60.75)"/>
<path d="M0 0 C2 3 2 3 2 5 C1.01 5 0.02 5 -1 5 C-1.33 5.66 -1.66 6.32 -2 7 C-2.33 5.35 -2.66 3.7 -3 2 C-2.01 2 -1.02 2 0 2 C0 1.34 0 0.68 0 0 Z " fill="#494F55" transform="translate(19,35)"/>
<path d="M0 0 C0.99 0.99 1.98 1.98 3 3 C2.67 3.99 2.34 4.98 2 6 C-0.31 6 -2.62 6 -5 6 C-5 5.67 -5 5.34 -5 5 C-3.35 5 -1.7 5 0 5 C0 3.35 0 1.7 0 0 Z " fill="#685B47" transform="translate(59,15)"/>
<path d="M0 0 C2.475 0.495 2.475 0.495 5 1 C4.67 1.99 4.34 2.98 4 4 C2.68 4 1.36 4 0 4 C0 2.68 0 1.36 0 0 Z " fill="#583F2F" transform="translate(30,15)"/>
<path d="M0 0 C2.31 0 4.62 0 7 0 C6.01 0.33 5.02 0.66 4 1 C2.79117904 3.00016466 2.79117904 3.00016466 2 5 C1.34 4.34 0.68 3.68 0 3 C0 2.01 0 1.02 0 0 Z " fill="#8B604B" transform="translate(33,9)"/>
<path d="M0 0 C0.99 0 1.98 0 3 0 C2.67 1.98 2.34 3.96 2 6 C1.67 5.34 1.34 4.68 1 4 C0.01 4.33 -0.98 4.66 -2 5 C-1.34 3.35 -0.68 1.7 0 0 Z " fill="#757474" transform="translate(55,47)"/>
<path d="M0 0 C0.33 1.32 0.66 2.64 1 4 C-3.75 3.25 -3.75 3.25 -6 1 C-4.02 0.67 -2.04 0.34 0 0 Z " fill="#2C2B25" transform="translate(35,43)"/>
<path d="M0 0 C0.99 0 1.98 0 3 0 C2.67 1.65 2.34 3.3 2 5 C2.66 5.33 3.32 5.66 4 6 C2.68 6 1.36 6 0 6 C0 4.02 0 2.04 0 0 Z " fill="#544B42" transform="translate(0,31)"/>
<path d="M0 0 C0.66 0 1.32 0 2 0 C2 0.66 2 1.32 2 2 C3.32 1.67 4.64 1.34 6 1 C5.34 2.32 4.68 3.64 4 5 C2.68 4.67 1.36 4.34 0 4 C0 2.68 0 1.36 0 0 Z " fill="#6B645D" transform="translate(0,27)"/>
<path d="M0 0 C0.99 0 1.98 0 3 0 C3 1.65 3 3.3 3 5 C1.68 4.67 0.36 4.34 -1 4 C-0.67 2.68 -0.34 1.36 0 0 Z " fill="#A89A86" transform="translate(61,25)"/>
<path d="M0 0 C0.99 0 1.98 0 3 0 C3 1.65 3 3.3 3 5 C1.35 5 -0.3 5 -2 5 C-1.34 4.67 -0.68 4.34 0 4 C0 2.68 0 1.36 0 0 Z " fill="#9F9069" transform="translate(24,6)"/>
</svg>
