<svg width="175" height="80" viewBox="0 0 175 80" fill="none" xmlns="http://www.w3.org/2000/svg">
<path d="M0 16C0 7.16343 7.16344 0 16 0H159C167.837 0 175 7.16345 175 16V63.9858C175 72.8224 167.837 79.9858 159 79.9858H16C7.16345 79.9858 0 72.8223 0 63.9858V16Z" fill="white"/>
<g clip-path="url(#clip0_203_342)">
<path fill-rule="evenodd" clip-rule="evenodd" d="M40 19.9929C28.9588 19.9929 20 28.9517 20 39.9929C20 51.0342 28.9588 59.9929 40 59.9929C51.0195 59.9929 60 51.0342 60 39.9929C60 28.9517 51.0195 19.9929 40 19.9929ZM53.2104 29.212C55.5965 32.1187 57.0283 35.828 57.0716 39.841C56.5076 39.7325 50.8676 38.5829 45.1844 39.2988C45.0542 39.0168 44.9458 38.713 44.8156 38.4094C44.4685 37.5852 44.0781 36.7392 43.6876 35.9365C49.9784 33.3769 52.8416 29.6892 53.2104 29.212ZM40 22.943C44.3384 22.943 48.308 24.5699 51.3232 27.238C51.0195 27.6719 48.4381 31.1209 42.3645 33.3985C39.5661 28.2576 36.4643 24.0493 35.987 23.3986C37.2668 23.0949 38.6118 22.943 40 22.943ZM32.7332 24.5482C33.1887 25.1556 36.2256 29.3856 39.0673 34.418C31.0846 36.5439 24.0347 36.5005 23.2755 36.5005C24.3818 31.2077 27.961 26.8042 32.7332 24.5482ZM22.9067 40.0145C22.9067 39.841 22.9067 39.6675 22.9067 39.494C23.6443 39.5157 31.9306 39.6242 40.4555 37.0645C40.9545 38.0189 41.41 38.995 41.8438 39.9713C41.6269 40.0363 41.3882 40.1014 41.1714 40.1664C32.3644 43.0082 27.679 50.7738 27.2885 51.4245C24.577 48.4094 22.9067 44.3964 22.9067 40.0145ZM40 57.0862C36.0521 57.0862 32.4078 55.7413 29.5228 53.4853C29.8265 52.8563 33.2972 46.1752 42.9284 42.8129C42.9717 42.7912 42.9935 42.7912 43.0369 42.7694C45.4446 48.995 46.4209 54.2228 46.6811 55.7195C44.6204 56.6089 42.3645 57.0862 40 57.0862ZM49.5228 54.1578C49.3493 53.1165 48.4383 48.1274 46.2039 41.9885C51.5619 41.1425 56.2473 42.5309 56.833 42.7262C56.0955 47.4767 53.3623 51.5764 49.5228 54.1578Z" fill="black"/>
</g>
<path d="M76.1619 35.1804H72.8104V25.7259H76.1896C77.1406 25.7259 77.9593 25.9151 78.6456 26.2937C79.3319 26.6692 79.8597 27.2093 80.229 27.9141C80.6014 28.6189 80.7876 29.4621 80.7876 30.4439C80.7876 31.4288 80.6014 32.2751 80.229 32.983C79.8597 33.6908 79.3288 34.234 78.6364 34.6126C77.947 34.9911 77.1222 35.1804 76.1619 35.1804ZM74.8093 33.4677H76.0788C76.6697 33.4677 77.1668 33.3631 77.57 33.1538C77.9762 32.9414 78.2809 32.6137 78.484 32.1705C78.6902 31.7242 78.7933 31.1487 78.7933 30.4439C78.7933 29.7453 78.6902 29.1744 78.484 28.7312C78.2809 28.288 77.9777 27.9618 77.5746 27.7525C77.1714 27.5432 76.6744 27.4386 76.0834 27.4386H74.8093V33.4677ZM83.7522 35.1804V25.7259H87.4823C88.1963 25.7259 88.8057 25.8536 89.3104 26.109C89.8183 26.3614 90.2045 26.72 90.4692 27.1847C90.7369 27.6463 90.8708 28.1895 90.8708 28.8143C90.8708 29.4421 90.7354 29.9823 90.4646 30.4347C90.1937 30.884 89.8013 31.2287 89.2874 31.4688C88.7765 31.7088 88.1579 31.8289 87.4315 31.8289H84.934V30.2223H87.1084C87.49 30.2223 87.807 30.17 88.0594 30.0654C88.3117 29.9607 88.4995 29.8038 88.6226 29.5945C88.7488 29.3852 88.8119 29.1251 88.8119 28.8143C88.8119 28.5004 88.7488 28.2357 88.6226 28.0203C88.4995 27.8048 88.3102 27.6417 88.0548 27.5309C87.8024 27.417 87.4839 27.3601 87.0991 27.3601H85.7511V35.1804H83.7522ZM88.858 30.8779L91.2078 35.1804H89.0011L86.7021 30.8779H88.858ZM95.7662 25.7259V35.1804H93.7673V25.7259H95.7662ZM98.8947 35.1804V25.7259H102.68C103.376 25.7259 103.956 25.829 104.421 26.0352C104.885 26.2414 105.235 26.5276 105.469 26.8938C105.702 27.257 105.819 27.6756 105.819 28.1495C105.819 28.5188 105.746 28.8435 105.598 29.1236C105.45 29.4006 105.247 29.6283 104.988 29.8068C104.733 29.9823 104.441 30.1069 104.111 30.1808V30.2731C104.471 30.2885 104.808 30.3901 105.122 30.5778C105.439 30.7655 105.696 31.0287 105.893 31.3672C106.09 31.7027 106.189 32.1028 106.189 32.5675C106.189 33.0692 106.064 33.5169 105.815 33.9109C105.569 34.3018 105.204 34.6111 104.721 34.8388C104.237 35.0665 103.642 35.1804 102.934 35.1804H98.8947ZM100.894 33.5462H102.523C103.08 33.5462 103.487 33.44 103.742 33.2276C103.997 33.0122 104.125 32.726 104.125 32.369C104.125 32.1074 104.062 31.8766 103.936 31.6765C103.81 31.4765 103.63 31.3195 103.396 31.2056C103.165 31.0918 102.889 31.0348 102.569 31.0348H100.894V33.5462ZM100.894 29.6822H102.375C102.649 29.6822 102.893 29.6345 103.105 29.5391C103.32 29.4406 103.49 29.3021 103.613 29.1236C103.739 28.9451 103.802 28.7312 103.802 28.4819C103.802 28.1403 103.68 27.8648 103.437 27.6556C103.197 27.4463 102.856 27.3416 102.412 27.3416H100.894V29.6822ZM108.973 35.1804V25.7259H112.759C113.454 25.7259 114.034 25.829 114.499 26.0352C114.964 26.2414 115.313 26.5276 115.547 26.8938C115.781 27.257 115.898 27.6756 115.898 28.1495C115.898 28.5188 115.824 28.8435 115.676 29.1236C115.529 29.4006 115.325 29.6283 115.067 29.8068C114.812 29.9823 114.519 30.1069 114.19 30.1808V30.2731C114.55 30.2885 114.887 30.3901 115.201 30.5778C115.518 30.7655 115.775 31.0287 115.972 31.3672C116.169 31.7027 116.267 32.1028 116.267 32.5675C116.267 33.0692 116.143 33.5169 115.893 33.9109C115.647 34.3018 115.282 34.6111 114.799 34.8388C114.316 35.0665 113.72 35.1804 113.013 35.1804H108.973ZM110.972 33.5462H112.602C113.159 33.5462 113.565 33.44 113.821 33.2276C114.076 33.0122 114.204 32.726 114.204 32.369C114.204 32.1074 114.141 31.8766 114.014 31.6765C113.888 31.4765 113.708 31.3195 113.474 31.2056C113.243 31.0918 112.968 31.0348 112.648 31.0348H110.972V33.5462ZM110.972 29.6822H112.454C112.728 29.6822 112.971 29.6345 113.183 29.5391C113.399 29.4406 113.568 29.3021 113.691 29.1236C113.817 28.9451 113.881 28.7312 113.881 28.4819C113.881 28.1403 113.759 27.8648 113.516 27.6556C113.276 27.4463 112.934 27.3416 112.491 27.3416H110.972V29.6822ZM119.052 35.1804V25.7259H122.837C123.533 25.7259 124.113 25.829 124.578 26.0352C125.042 26.2414 125.392 26.5276 125.626 26.8938C125.86 27.257 125.976 27.6756 125.976 28.1495C125.976 28.5188 125.903 28.8435 125.755 29.1236C125.607 29.4006 125.404 29.6283 125.146 29.8068C124.89 29.9823 124.598 30.1069 124.268 30.1808V30.2731C124.628 30.2885 124.965 30.3901 125.279 30.5778C125.596 30.7655 125.853 31.0287 126.05 31.3672C126.247 31.7027 126.346 32.1028 126.346 32.5675C126.346 33.0692 126.221 33.5169 125.972 33.9109C125.726 34.3018 125.361 34.6111 124.878 34.8388C124.395 35.0665 123.799 35.1804 123.091 35.1804H119.052ZM121.051 33.5462H122.68C123.237 33.5462 123.644 33.44 123.899 33.2276C124.155 33.0122 124.282 32.726 124.282 32.369C124.282 32.1074 124.219 31.8766 124.093 31.6765C123.967 31.4765 123.787 31.3195 123.553 31.2056C123.322 31.0918 123.047 31.0348 122.726 31.0348H121.051V33.5462ZM121.051 29.6822H122.533C122.807 29.6822 123.05 29.6345 123.262 29.5391C123.477 29.4406 123.647 29.3021 123.77 29.1236C123.896 28.9451 123.959 28.7312 123.959 28.4819C123.959 28.1403 123.838 27.8648 123.594 27.6556C123.354 27.4463 123.013 27.3416 122.57 27.3416H121.051V29.6822ZM129.13 35.1804V25.7259H131.129V33.5323H135.183V35.1804H129.13ZM137.99 35.1804V25.7259H144.361V27.374H139.989V29.6268H144.033V31.2749H139.989V33.5323H144.379V35.1804H137.99Z" fill="black"/>
<path d="M79.3832 45.7639C79.3441 45.3342 79.1703 45.0002 78.8617 44.762C78.557 44.5198 78.1214 44.3987 77.555 44.3987C77.18 44.3987 76.8675 44.4475 76.6175 44.5452C76.3675 44.6428 76.18 44.7776 76.055 44.9495C75.93 45.1174 75.8656 45.3108 75.8617 45.5295C75.8539 45.7092 75.889 45.8674 75.9671 46.0042C76.0492 46.1409 76.1664 46.262 76.3187 46.3674C76.475 46.469 76.6625 46.5588 76.8812 46.637C77.1 46.7151 77.3461 46.7834 77.6195 46.842L78.6507 47.0764C79.2445 47.2053 79.7679 47.3772 80.2211 47.592C80.6781 47.8069 81.0609 48.0627 81.3695 48.3596C81.682 48.6565 81.9183 48.9983 82.0785 49.385C82.2386 49.7717 82.3207 50.2053 82.3246 50.6858C82.3207 51.4436 82.1293 52.094 81.7504 52.637C81.3714 53.1799 80.8265 53.5959 80.1156 53.885C79.4086 54.1741 78.555 54.3186 77.555 54.3186C76.5511 54.3186 75.6761 54.1682 74.93 53.8674C74.1839 53.5667 73.6039 53.1096 73.1898 52.4963C72.7757 51.8831 72.5629 51.1077 72.5511 50.1702H75.3285C75.3519 50.5569 75.4554 50.8792 75.639 51.137C75.8226 51.3948 76.0746 51.5901 76.3949 51.7229C76.7191 51.8557 77.0941 51.9221 77.5199 51.9221C77.9105 51.9221 78.2425 51.8694 78.516 51.7639C78.7933 51.6584 79.0062 51.512 79.1546 51.3245C79.3031 51.137 79.3793 50.9221 79.3832 50.6799C79.3793 50.4534 79.3089 50.26 79.1722 50.0999C79.0355 49.9358 78.8246 49.7952 78.5394 49.678C78.2582 49.5569 77.8988 49.4456 77.4613 49.344L76.2074 49.051C75.1683 48.8127 74.35 48.428 73.7523 47.8967C73.1546 47.3616 72.8578 46.6389 72.8617 45.7288C72.8578 44.9866 73.057 44.3362 73.4593 43.7776C73.8617 43.219 74.4183 42.7834 75.1293 42.4709C75.8402 42.1584 76.6507 42.0022 77.5609 42.0022C78.4906 42.0022 79.2972 42.1604 79.9808 42.4768C80.6683 42.7893 81.2015 43.2288 81.5804 43.7952C81.9593 44.3616 82.1527 45.0178 82.1605 45.7639H79.3832ZM85.3978 54.1663V42.1663H93.765V44.5217H88.2982V46.9827H93.3372V49.344H88.2982V51.8108H93.765V54.1663H85.3978ZM97.1897 54.1663V42.1663H100.09V51.8108H105.082V54.1663H97.1897ZM108.192 54.1663V42.1663H116.559V44.5217H111.093V46.9827H116.132V49.344H111.093V51.8108H116.559V54.1663H108.192ZM130.877 46.5139H127.947C127.908 46.2131 127.828 45.9416 127.707 45.6995C127.586 45.4573 127.425 45.2502 127.226 45.0784C127.027 44.9065 126.791 44.7756 126.517 44.6858C126.248 44.592 125.949 44.5452 125.621 44.5452C125.039 44.5452 124.537 44.6877 124.115 44.9729C123.697 45.2581 123.375 45.6702 123.148 46.2092C122.925 46.7483 122.814 47.4006 122.814 48.1663C122.814 48.9631 122.927 49.6311 123.154 50.1702C123.384 50.7053 123.707 51.1096 124.121 51.3831C124.539 51.6526 125.033 51.7874 125.603 51.7874C125.924 51.7874 126.215 51.7463 126.476 51.6643C126.742 51.5823 126.974 51.4631 127.174 51.3069C127.377 51.1467 127.543 50.9534 127.672 50.7268C127.804 50.4963 127.896 50.2366 127.947 49.9475L130.877 49.9651C130.826 50.4963 130.672 51.0198 130.414 51.5354C130.16 52.051 129.81 52.5217 129.365 52.9475C128.92 53.3694 128.377 53.7053 127.736 53.9553C127.099 54.2053 126.369 54.3303 125.545 54.3303C124.459 54.3303 123.486 54.092 122.627 53.6155C121.771 53.135 121.095 52.4358 120.599 51.5178C120.103 50.5999 119.855 49.4827 119.855 48.1663C119.855 46.8459 120.107 45.7268 120.611 44.8088C121.115 43.8909 121.797 43.1936 122.656 42.717C123.515 42.2405 124.478 42.0022 125.545 42.0022C126.271 42.0022 126.943 42.1038 127.56 42.3069C128.177 42.5061 128.72 42.7991 129.189 43.1858C129.658 43.5686 130.039 44.0393 130.332 44.5979C130.625 45.1565 130.806 45.7952 130.877 46.5139ZM133.752 44.5217V42.1663H143.895V44.5217H140.256V54.1663H137.397V44.5217H133.752Z" fill="black"/>
<defs>
<clipPath id="clip0_203_342">
<rect width="40" height="40" fill="white" transform="translate(20 19.9929)"/>
</clipPath>
</defs>
</svg>
