<svg width="186" height="64" viewBox="0 0 186 64" fill="none" xmlns="http://www.w3.org/2000/svg">
  <g style="mix-blend-mode:luminosity">
    <path d="M56.3981 20H44.1316C40.6519 20 37.7959 22.8451 37.7959 26.3359V38.6027C37.7959 42.0825 40.6409 44.9385 44.1316 44.9385H48.1584H56.3981C59.8778 44.9385 62.7338 42.0934 62.7338 38.6027V28.0101V26.3359C62.7338 22.8561 59.8888 20 56.3981 20Z" fill="#E2392B" />
    <path d="M62.7347 38.6027V27.9882L57.5151 24.1035L44.0996 26.6203L44.8546 40.5505L49.1988 44.9276H56.388C59.8787 44.9385 62.7347 42.0825 62.7347 38.6027Z" fill="url(#paint0_linear_4285_22552)" />
    <path d="M55.6537 30.1876C51.6378 28.6775 49.2852 30.8989 49.2852 30.8989L50.0731 33.1312L52.185 33.7987L53.52 33.2735L54.0233 37.0925C52.0646 35.9107 50.1606 35.8231 50.1606 35.8231C47.7204 35.8122 46.1557 37.1363 46.1557 37.1363C44.3501 31.3585 46.1885 27.8568 46.1885 27.8568H47.6001H48.5521H50.6093H51.233H55.1723C56.0805 27.9115 56.4963 27.3097 56.4963 27.3097L56.8355 26.7297L57.2076 26.095L57.4702 25.6464C57.4702 25.6464 57.4702 25.6464 57.4702 25.6354L57.6562 25.3071C58.3237 24.1363 57.2295 24.0815 57.0544 24.0815H55.993C55.9601 24.0815 55.9273 24.0815 55.8945 24.0815C52.2287 24.0925 48.5521 24.0925 44.8863 24.0815C44.6237 24.0815 44.4377 24.1691 44.2626 24.3661C43.6061 25.1102 43.0918 25.9418 42.665 26.8282C41.5489 29.2356 41.2315 31.7634 41.6036 34.3677C41.9209 36.5672 42.7307 38.5916 44.186 40.3097C44.4049 40.5613 44.6347 40.6708 44.9739 40.6708C46.7575 40.6598 48.5411 40.6598 50.3357 40.6598C52.1521 40.6598 53.9686 40.6489 55.796 40.6708C56.1352 40.6708 56.365 40.5723 56.5839 40.3097C57.2513 39.5108 57.7985 38.6464 58.2143 37.6943C58.2143 37.6943 58.2143 37.6834 58.2252 37.6834L55.6537 30.1876Z" fill="white" />
    <path d="M50.0836 33.131L52.1845 33.7876L53.5086 33.2733L54.0119 37.0704L55.5439 38.0772L53.9025 30.9097L51.9328 31.6428L49.3066 30.9097L50.0836 33.131Z" fill="url(#paint1_linear_4285_22552)" />
    <path d="M46.1675 37.136L44.4933 37.0047C44.4933 37.0047 41.4951 31.3144 45.1827 26.0947H57.2195L56.8474 26.7294L56.5082 27.3094C56.5082 27.3094 56.0486 27.9222 55.1841 27.8565H51.2449H48.5639H47.6119H46.2004C46.2004 27.8565 44.362 31.0627 46.1675 37.136Z" fill="url(#paint2_linear_4285_22552)" />
    <path d="M86.338 32.4261V37.3159C86.1562 37.5563 85.8719 37.8201 85.4849 38.1074C85.1038 38.3888 84.5966 38.6321 83.9634 38.8373C83.3302 39.0425 82.5417 39.1451 81.5977 39.1451C80.7945 39.1451 80.0587 39.0103 79.3903 38.7406C78.7219 38.465 78.1444 38.0634 77.6578 37.5357C77.177 37.0081 76.8047 36.3661 76.5409 35.6097C76.277 34.8475 76.1451 33.9798 76.1451 33.0066V32.1183C76.1451 31.1509 76.2653 30.289 76.5057 29.5327C76.7519 28.7705 77.1037 28.1256 77.561 27.5979C78.0183 27.0703 78.5695 26.6716 79.2144 26.4019C79.8652 26.1263 80.601 25.9885 81.4218 25.9885C82.4713 25.9885 83.339 26.1644 84.025 26.5162C84.7168 26.8621 85.2504 27.3429 85.6256 27.9585C86.0008 28.5741 86.2383 29.2777 86.338 30.0692H84.1745C84.1042 29.6236 83.9664 29.2249 83.7612 28.8731C83.5618 28.5214 83.2745 28.2458 82.8993 28.0464C82.5299 27.8412 82.0492 27.7386 81.457 27.7386C80.9469 27.7386 80.4984 27.8354 80.1114 28.0289C79.7245 28.2223 79.402 28.5067 79.144 28.8819C78.8919 29.2572 78.7014 29.7145 78.5724 30.2539C78.4434 30.7933 78.3789 31.4089 78.3789 32.1007V33.0066C78.3789 33.7101 78.4522 34.3345 78.5988 34.8798C78.7512 35.425 78.9682 35.8853 79.2496 36.2605C79.5369 36.6358 79.8857 36.9201 80.2961 37.1136C80.7065 37.3012 81.1697 37.395 81.6857 37.395C82.1899 37.395 82.6032 37.354 82.9257 37.2719C83.2482 37.184 83.5032 37.0813 83.6908 36.9641C83.8843 36.841 84.0338 36.7237 84.1393 36.6123V34.0707H81.4746V32.4261H86.338ZM90.5248 26.1644L93.4974 32.2766L96.4699 26.1644H98.9148L94.6055 34.2554V38.9692H92.3805V34.2554L88.0712 26.1644H90.5248ZM101.73 26.1644H103.7L107.402 36.0407L111.096 26.1644H113.066L108.176 38.9692H106.611L101.73 26.1644ZM100.833 26.1644H102.706L103.031 34.7127V38.9692H100.833V26.1644ZM112.09 26.1644H113.972V38.9692H111.764V34.7127L112.09 26.1644ZM120.832 38.9692H118.097L118.115 37.2191H120.832C121.624 37.2191 122.286 37.0462 122.82 36.7003C123.359 36.3543 123.764 35.8589 124.033 35.214C124.309 34.569 124.447 33.801 124.447 32.9098V32.215C124.447 31.5232 124.367 30.9105 124.209 30.377C124.057 29.8435 123.828 29.3949 123.523 29.0314C123.224 28.6679 122.855 28.3924 122.415 28.2047C121.981 28.0171 121.48 27.9233 120.911 27.9233H118.044V26.1644H120.911C121.761 26.1644 122.538 26.3081 123.242 26.5954C123.945 26.8768 124.552 27.2843 125.062 27.8178C125.578 28.3513 125.974 28.9904 126.25 29.735C126.525 30.4796 126.663 31.3121 126.663 32.2326V32.9098C126.663 33.8303 126.525 34.6629 126.25 35.4075C125.974 36.1521 125.578 36.7911 125.062 37.3247C124.546 37.8523 123.931 38.2598 123.215 38.5471C122.506 38.8285 121.712 38.9692 120.832 38.9692ZM119.319 26.1644V38.9692H117.112V26.1644H119.319ZM137.78 37.2191V38.9692H130.982V37.2191H137.78ZM131.606 26.1644V38.9692H129.399V26.1644H131.606ZM136.892 31.5115V33.2352H130.982V31.5115H136.892ZM137.736 26.1644V27.9233H130.982V26.1644H137.736ZM146.839 35.6713C146.839 35.4075 146.798 35.1729 146.716 34.9677C146.639 34.7625 146.502 34.5749 146.302 34.4049C146.103 34.2349 145.822 34.0707 145.458 33.9124C145.1 33.7482 144.643 33.5811 144.086 33.4111C143.476 33.2235 142.914 33.0153 142.398 32.7867C141.888 32.5522 141.442 32.2825 141.061 31.9776C140.68 31.6669 140.384 31.3121 140.173 30.9135C139.962 30.5089 139.856 30.0428 139.856 29.5151C139.856 28.9933 139.964 28.5184 140.181 28.0904C140.404 27.6624 140.718 27.293 141.122 26.9823C141.533 26.6657 142.017 26.4224 142.573 26.2524C143.13 26.0765 143.746 25.9885 144.42 25.9885C145.37 25.9885 146.188 26.1644 146.874 26.5162C147.566 26.868 148.096 27.34 148.466 27.9321C148.841 28.5243 149.029 29.178 149.029 29.8933H146.839C146.839 29.4712 146.748 29.0989 146.566 28.7764C146.39 28.4481 146.121 28.1901 145.757 28.0025C145.399 27.8149 144.945 27.721 144.394 27.721C143.872 27.721 143.438 27.8002 143.092 27.9585C142.746 28.1168 142.488 28.3308 142.318 28.6005C142.148 28.8702 142.063 29.1751 142.063 29.5151C142.063 29.7555 142.119 29.9754 142.231 30.1747C142.342 30.3682 142.512 30.55 142.741 30.72C142.969 30.8841 143.257 31.0395 143.602 31.1861C143.948 31.3327 144.356 31.4734 144.825 31.6082C145.534 31.8193 146.153 32.0538 146.681 32.3118C147.208 32.5639 147.648 32.8512 148 33.1737C148.351 33.4961 148.615 33.8626 148.791 34.273C148.967 34.6775 149.055 35.1378 149.055 35.6537C149.055 36.1931 148.947 36.6797 148.73 37.1136C148.513 37.5416 148.202 37.908 147.797 38.2129C147.399 38.5119 146.918 38.7435 146.355 38.9077C145.798 39.066 145.177 39.1451 144.491 39.1451C143.875 39.1451 143.268 39.063 142.67 38.8989C142.078 38.7347 141.539 38.4855 141.052 38.1513C140.565 37.8113 140.178 37.3892 139.891 36.8849C139.604 36.3749 139.46 35.7798 139.46 35.0997H141.668C141.668 35.5159 141.738 35.8706 141.879 36.1638C142.025 36.4569 142.228 36.6973 142.486 36.8849C142.744 37.0667 143.043 37.2015 143.383 37.2895C143.729 37.3774 144.098 37.4214 144.491 37.4214C145.007 37.4214 145.438 37.3481 145.783 37.2015C146.135 37.055 146.399 36.8498 146.575 36.5859C146.751 36.3221 146.839 36.0172 146.839 35.6713ZM153.734 26.1644V38.9692H151.527V26.1644H153.734ZM161.43 26.1644L156.241 32.3294L153.286 35.4602L152.899 33.2704L155.01 30.6672L158.738 26.1644H161.43ZM159.055 38.9692L154.843 32.901L156.364 31.3972L161.676 38.9692H159.055Z" fill="#E2392B" />
  </g>
  <defs>
    <linearGradient id="paint0_linear_4285_22552" x1="45.1178" y1="25.611" x2="61.7271" y2="42.2198" gradientUnits="userSpaceOnUse">
      <stop stop-color="#AA0025" />
      <stop offset="0.1169" stop-color="#B40B26" />
      <stop offset="0.453" stop-color="#CD2429" />
      <stop offset="0.7574" stop-color="#DD342A" />
      <stop offset="1" stop-color="#E2392B" />
    </linearGradient>
    <linearGradient id="paint1_linear_4285_22552" x1="52.4231" y1="38.0726" x2="52.4231" y2="30.908" gradientUnits="userSpaceOnUse">
      <stop stop-color="white" />
      <stop offset="1" stop-color="#D4D4D4" />
    </linearGradient>
    <linearGradient id="paint2_linear_4285_22552" x1="50.2779" y1="37.1315" x2="50.2779" y2="26.0912" gradientUnits="userSpaceOnUse">
      <stop stop-color="white" />
      <stop offset="1" stop-color="#D4D4D4" />
    </linearGradient>
  </defs>
</svg>