<svg width="56" height="56" viewBox="0 0 56 56" fill="none" xmlns="http://www.w3.org/2000/svg">
<circle cx="28" cy="28" r="28" fill="#F8FAFF"/>
<g clip-path="url(#clip0_696_19000)">
<path d="M28 44C36.8366 44 44 36.8366 44 28C44 19.1634 36.8366 12 28 12C19.1634 12 12 19.1634 12 28C12 36.8366 19.1634 44 28 44Z" fill="#663399"/>
<path d="M19.0849 36.9142C16.6849 34.5142 15.4277 31.3142 15.4277 28.2285L27.8849 40.5714C24.6849 40.4571 21.4849 39.3142 19.0849 36.9142Z" fill="white"/>
<path d="M30.7429 40.2287L15.7715 25.2573C17.0286 19.6573 22.0572 15.4287 28.0001 15.4287C32.2286 15.4287 35.8858 17.4859 38.1715 20.5716L36.4572 22.0573C34.5143 19.4287 31.4286 17.7144 28.0001 17.7144C23.5429 17.7144 19.7715 20.5716 18.2858 24.5716L31.4286 37.7144C34.7429 36.5716 37.2572 33.7144 38.0572 30.2859H32.5715V28.0001H40.5715C40.5715 33.943 36.3429 38.9716 30.7429 40.2287Z" fill="white"/>
</g>
<defs>
<clipPath id="clip0_696_19000">
<rect width="32" height="32" fill="white" transform="translate(12 12)"/>
</clipPath>
</defs>
</svg>
