<svg width="56" height="56" viewBox="0 0 56 56" fill="none" xmlns="http://www.w3.org/2000/svg">
<circle cx="28" cy="28" r="28" fill="#F8FAFF"/>
<g clip-path="url(#clip0_696_18914)">
<path d="M13.7031 33.9567C11.8169 33.9567 10.1875 32.843 10.1875 30.5855H12.0625C12.0625 31.6505 12.835 32.198 13.7069 32.198C14.5788 32.198 15.3194 31.6992 15.3194 30.4561V22.313H17.2019V30.6248C17.2019 32.9892 15.5406 33.9567 13.7031 33.9567ZM19.7594 24.4148C19.4434 24.4129 19.1409 24.2864 18.9177 24.0627C18.6944 23.8391 18.5683 23.5365 18.5669 23.2205C18.5723 22.9073 18.7001 22.6086 18.923 22.3885C19.1459 22.1684 19.4461 22.0444 19.7594 22.043C19.9141 22.0425 20.0675 22.0726 20.2106 22.1316C20.3537 22.1906 20.4837 22.2773 20.5931 22.3868C20.7025 22.4962 20.7893 22.6262 20.8483 22.7693C20.9073 22.9124 20.9374 23.0657 20.9369 23.2205C20.9391 23.3765 20.9103 23.5315 20.8521 23.6763C20.794 23.8211 20.7076 23.9529 20.598 24.064C20.4885 24.1752 20.3579 24.2634 20.2139 24.3236C20.0699 24.3839 19.9154 24.4149 19.7594 24.4148ZM18.8725 25.6992H20.6462V33.7617H18.8725V25.6992ZM25.2738 33.8423C23.725 33.8423 22.5156 32.9892 22.5156 31.1667V23.4586H24.2894V25.7086H26.2413V27.2892H24.2894V30.8761C24.2894 31.8755 24.7263 32.2298 25.645 32.2298C25.9678 32.2358 26.2892 32.187 26.5956 32.0855V33.6661C26.1668 33.793 25.7208 33.8525 25.2738 33.8423ZM30.1769 33.8423C28.6281 33.8423 27.4188 32.9892 27.4188 31.1667V23.4586H29.1925V25.7086H31.4988V27.2892H29.1925V30.8761C29.1925 31.8755 29.6275 32.2298 30.5481 32.2298C30.8709 32.2357 31.1923 32.1869 31.4988 32.0855V33.6661C31.0699 33.793 30.624 33.8525 30.1769 33.8423ZM36.1488 25.538C38.26 25.538 40.0337 26.9423 40.0337 29.5373C40.0337 29.7155 40.0338 29.8598 40.0188 30.1186H33.6813C33.7619 31.4405 34.8269 32.3105 36.1637 32.3105C37.2887 32.3105 38.0519 31.7948 38.47 31.0861L39.8256 32.0536C39.1 33.1973 37.8419 33.9286 36.1488 33.9286C33.6981 33.9286 31.9394 32.1886 31.9394 29.7361C31.9375 27.3605 33.6981 25.538 36.1488 25.538ZM33.7619 28.8286H38.245C38.0575 27.668 37.12 27.038 36.0831 27.038C35.0462 27.038 34 27.6342 33.7619 28.8286ZM41.1944 25.6992H42.9681V27.1355C43.1235 26.6939 43.4116 26.3112 43.7929 26.0396C44.1741 25.7681 44.63 25.621 45.0981 25.6186C45.3304 25.617 45.5622 25.639 45.79 25.6842V27.5067C45.5044 27.4095 45.2048 27.3601 44.9031 27.3605C43.8887 27.3605 42.9681 28.2155 42.9681 29.828V33.7655H41.1944V25.6992Z" fill="black"/>
</g>
<defs>
<clipPath id="clip0_696_18914">
<rect width="36" height="12" fill="white" transform="translate(10 22)"/>
</clipPath>
</defs>
</svg>
