<svg width="56" height="56" viewBox="0 0 56 56" fill="none" xmlns="http://www.w3.org/2000/svg">
<circle cx="28" cy="28" r="28" fill="#F8FAFF"/>
<path fill-rule="evenodd" clip-rule="evenodd" d="M12.776 32.9659C10.6748 30.8825 10.6748 27.5046 12.7761 25.4212L18.4832 19.7626C20.2595 18.0014 22.9688 17.729 25.0336 18.9454C25.6724 19.3217 25.6668 20.1848 25.1414 20.7057C24.6162 21.2265 23.7586 21.1817 23.0456 20.9749C22.1325 20.7101 21.1057 20.9348 20.3856 21.6488L14.6784 27.3074C13.6278 28.3491 13.6278 30.038 14.6784 31.0797C15.729 32.1215 17.4325 32.1215 18.4831 31.0797L29.8972 19.7626C31.9986 17.6792 35.4053 17.6792 37.5066 19.7626L43.2138 25.4212C45.3151 27.5045 45.3151 30.8825 43.2138 32.9659C41.1126 35.0493 37.7057 35.0493 35.6044 32.9659L33.7021 31.0797L31.3241 33.4375C29.5478 35.1987 26.8385 35.471 24.7736 34.2546C24.1349 33.8783 24.1405 33.0152 24.6659 32.4944C25.1911 31.9735 26.0486 32.0183 26.7617 32.2251C27.6748 32.4899 28.7016 32.2652 29.4217 31.5512L31.8677 29.1262C32.8808 28.1217 34.5233 28.1217 35.5365 29.1262L37.5068 31.0797C38.5574 32.1214 40.2608 32.1214 41.3114 31.0797C42.3621 30.038 42.3621 28.3491 41.3114 27.3074L35.6043 21.6488C34.5536 20.6071 32.8503 20.6071 31.7996 21.6488L20.3855 32.9659C18.2842 35.0494 14.8773 35.0494 12.776 32.9659Z" fill="#0768FD"/>
</svg>
