<svg width="56" height="56" viewBox="0 0 56 56" fill="none" xmlns="http://www.w3.org/2000/svg">
<circle cx="28" cy="28" r="28" fill="#F8FAFF"/>
<g clip-path="url(#clip0_696_19008)">
<path d="M34.1914 24.0029H41.0542V25.2696H38.3318V31.9335H36.9705V25.2696H34.1914V24.0029Z" fill="black"/>
<path d="M22.9057 24.0029V25.2696H17.4047V27.3073H21.8286V28.574H17.4047V30.6668H22.9057V31.9335H16.0435V25.2696H16.043V24.0029H22.9057Z" fill="black"/>
<path d="M26.3322 24.0068H24.5508L30.9314 31.9374H32.718L29.5273 27.9749L32.7129 24.0129L30.9314 24.0156L28.6354 26.8672L26.3322 24.0068Z" fill="black"/>
<path d="M28.1594 29.6717L27.2673 28.5625L24.5449 31.9435H26.3314L28.1594 29.6717Z" fill="black"/>
<path fill-rule="evenodd" clip-rule="evenodd" d="M16.0907 31.9339L9.70151 24H8V31.9306H9.36121V25.6952L14.3807 31.9339H16.0907Z" fill="black"/>
<path d="M41.3607 31.8858C41.261 31.8858 41.1762 31.8513 41.1052 31.7822C41.0342 31.7131 40.9991 31.6295 41 31.5304C40.9991 31.4341 41.0342 31.3514 41.1052 31.2823C41.1762 31.2133 41.261 31.1787 41.3607 31.1787C41.4566 31.1787 41.5405 31.2133 41.6115 31.2823C41.6835 31.3514 41.7194 31.4341 41.7204 31.5304C41.7194 31.5959 41.7028 31.6559 41.6696 31.7095C41.6355 31.764 41.5922 31.8067 41.5377 31.8376C41.4842 31.8694 41.4252 31.8858 41.3607 31.8858Z" fill="black"/>
<path d="M43.6832 28.5449H44.2864V30.8689C44.2855 31.0824 44.2393 31.2651 44.149 31.4187C44.0577 31.5723 43.9313 31.6895 43.769 31.7722C43.6076 31.854 43.4185 31.8959 43.2036 31.8959C43.0071 31.8959 42.831 31.8604 42.6742 31.7913C42.5174 31.7223 42.3929 31.6187 42.3016 31.4823C42.2093 31.346 42.1641 31.176 42.1641 30.9725H42.7683C42.7692 31.0615 42.7895 31.1388 42.8282 31.2033C42.8669 31.2678 42.9204 31.3169 42.9887 31.3514C43.0578 31.386 43.1372 31.4033 43.2266 31.4033C43.3235 31.4033 43.4065 31.3833 43.4738 31.3424C43.5411 31.3024 43.5928 31.2424 43.6288 31.1624C43.6638 31.0833 43.6823 30.9852 43.6832 30.8689V28.5449Z" fill="black"/>
<path d="M46.7695 29.4534C46.7548 29.3125 46.6902 29.2025 46.5777 29.1244C46.4642 29.0453 46.3176 29.0062 46.1377 29.0062C46.0114 29.0062 45.9026 29.0253 45.8122 29.0626C45.7218 29.1008 45.6517 29.1516 45.6037 29.2162C45.5558 29.2807 45.5318 29.3543 45.5299 29.437C45.5299 29.5061 45.5465 29.5661 45.5788 29.6161C45.6111 29.667 45.6544 29.7097 45.7107 29.7442C45.766 29.7797 45.8278 29.8087 45.8952 29.8324C45.9634 29.856 46.0317 29.876 46.0999 29.8924L46.4144 29.9696C46.5408 29.9987 46.6635 30.0378 46.7806 30.0878C46.8977 30.1368 47.0038 30.1996 47.0969 30.275C47.1901 30.3504 47.2639 30.4413 47.3183 30.5476C47.3727 30.654 47.4004 30.7785 47.4004 30.9221C47.4004 31.1157 47.3506 31.2856 47.25 31.4328C47.1495 31.5792 47.0047 31.6937 46.8147 31.7764C46.6256 31.8582 46.3969 31.9 46.1276 31.9C45.8675 31.9 45.6406 31.86 45.4497 31.78C45.2579 31.701 45.1084 31.5846 45.0005 31.4319C44.8926 31.2793 44.8345 31.0929 44.8262 30.8739H45.4239C45.4322 30.9884 45.4691 31.0839 45.5318 31.1611C45.5954 31.2374 45.6784 31.2938 45.7799 31.332C45.8823 31.3692 45.9966 31.3883 46.123 31.3883C46.2549 31.3883 46.3711 31.3683 46.4716 31.3292C46.5712 31.2902 46.6496 31.2356 46.7059 31.1647C46.7631 31.0948 46.7917 31.0121 46.7926 30.9175C46.7917 30.8312 46.7658 30.7594 46.716 30.703C46.6653 30.6467 46.5952 30.5994 46.5057 30.5613C46.4154 30.5231 46.3102 30.4886 46.1903 30.4586L45.8085 30.3622C45.5327 30.2922 45.3141 30.1859 45.1545 30.0432C44.9941 29.9005 44.9147 29.7115 44.9147 29.4743C44.9147 29.2798 44.9682 29.1089 45.0762 28.9626C45.1831 28.8163 45.3298 28.7027 45.5152 28.6218C45.7015 28.54 45.9118 28.5 46.146 28.5C46.384 28.5 46.5924 28.54 46.7723 28.6218C46.9521 28.7027 47.0933 28.8154 47.1956 28.959C47.298 29.1026 47.3515 29.2671 47.3543 29.4534H46.7695Z" fill="black"/>
</g>
<defs>
<clipPath id="clip0_696_19008">
<rect width="39.4" height="8" fill="white" transform="translate(8 24)"/>
</clipPath>
</defs>
</svg>
