<svg width="56" height="56" viewBox="0 0 56 56" fill="none" xmlns="http://www.w3.org/2000/svg">
  <circle cx="28" cy="28" r="28" fill="#F8FAFF" />
  <path d="M40.7934 27.9382C40.7934 26.1912 38.607 24.5356 35.2549 23.5088C36.0284 20.0901 35.6846 17.3701 34.1697 16.4993C33.8206 16.295 33.4123 16.1982 32.9664 16.1982V17.397C33.2135 17.397 33.4123 17.4453 33.5788 17.5367C34.3094 17.956 34.6264 19.5525 34.3792 21.6059C34.3202 22.1112 34.2235 22.6434 34.1053 23.1863C33.0524 22.9283 31.9028 22.7294 30.6941 22.6004C29.9689 21.6059 29.2168 20.7029 28.4593 19.9127C30.2106 18.2839 31.8544 17.3916 32.9718 17.3916V16.1929C31.4945 16.1929 29.5606 17.2465 27.6052 19.0741C25.6498 17.2572 23.7159 16.2144 22.2386 16.2144V17.4131C23.3506 17.4131 24.9998 18.3 26.751 19.9181C25.999 20.7082 25.2469 21.6059 24.5324 22.6004C23.3183 22.7294 22.1687 22.9283 21.1158 23.1917C20.9923 22.6542 20.901 22.1327 20.8365 21.6328C20.584 19.5794 20.8956 17.9829 21.6208 17.5582C21.782 17.4615 21.9915 17.4185 22.2386 17.4185V16.2197C21.7873 16.2197 21.3791 16.3165 21.0245 16.5208C19.515 17.3916 19.1766 20.1062 19.9555 23.5142C16.6141 24.5463 14.4385 26.1966 14.4385 27.9382C14.4385 29.6852 16.6249 31.3409 19.977 32.3676C19.2034 35.7864 19.5472 38.5063 21.0621 39.3772C21.4113 39.5814 21.8196 39.6782 22.2708 39.6782C23.7481 39.6782 25.682 38.6246 27.6374 36.7969C29.5928 38.6138 31.5267 39.6567 33.004 39.6567C33.4553 39.6567 33.8635 39.5599 34.2181 39.3556C35.7276 38.4848 36.066 35.7702 35.2871 32.3622C38.6177 31.3355 40.7934 29.6799 40.7934 27.9382ZM33.7991 24.3528C33.6003 25.0462 33.3532 25.7612 33.0739 26.4761C32.8536 26.0461 32.6226 25.616 32.3701 25.186C32.123 24.7559 31.8598 24.3367 31.5966 23.9281C32.3594 24.041 33.0953 24.1808 33.7991 24.3528ZM31.3387 30.0776C30.9197 30.8033 30.4899 31.4914 30.0441 32.1311C29.2436 32.2009 28.4325 32.2386 27.6159 32.2386C26.8048 32.2386 25.9936 32.2009 25.1985 32.1364C24.7527 31.4968 24.3175 30.8141 23.8985 30.0938C23.4903 29.3896 23.1196 28.6746 22.7812 27.9543C23.1142 27.234 23.4903 26.5137 23.8932 25.8095C24.3122 25.0839 24.7419 24.3958 25.1878 23.7561C25.9882 23.6862 26.7994 23.6486 27.6159 23.6486C28.4271 23.6486 29.2383 23.6862 30.0333 23.7507C30.4792 24.3904 30.9143 25.0731 31.3333 25.7934C31.7416 26.4976 32.1123 27.2125 32.4507 27.9328C32.1123 28.6531 31.7416 29.3735 31.3387 30.0776ZM33.0739 29.3788C33.3639 30.0991 33.6111 30.8194 33.8152 31.5183C33.1115 31.6903 32.3701 31.8354 31.6019 31.9483C31.8652 31.5344 32.1284 31.1097 32.3755 30.6743C32.6226 30.2443 32.8536 29.8089 33.0739 29.3788ZM27.6267 35.1144C27.1271 34.5984 26.6275 34.0232 26.1333 33.3943C26.6167 33.4158 27.111 33.4319 27.6106 33.4319C28.1155 33.4319 28.6151 33.4212 29.104 33.3943C28.6205 34.0232 28.1209 34.5984 27.6267 35.1144ZM23.6299 31.9483C22.8671 31.8354 22.1311 31.6956 21.4274 31.5236C21.6262 30.8302 21.8733 30.1153 22.1526 29.4003C22.3729 29.8304 22.6039 30.2604 22.8564 30.6904C23.1088 31.1205 23.3667 31.5398 23.6299 31.9483ZM27.5998 20.762C28.0994 21.278 28.599 21.8532 29.0932 22.4821C28.6097 22.4606 28.1155 22.4445 27.6159 22.4445C27.111 22.4445 26.6114 22.4553 26.1225 22.4821C26.606 21.8532 27.1056 21.278 27.5998 20.762ZM23.6246 23.9281C23.3613 24.342 23.0981 24.7667 22.851 25.2021C22.6039 25.6321 22.3729 26.0622 22.1526 26.4922C21.8625 25.7719 21.6154 25.0516 21.4113 24.3528C22.115 24.1862 22.8564 24.041 23.6246 23.9281ZM18.7629 30.6582C16.8612 29.8465 15.6311 28.7822 15.6311 27.9382C15.6311 27.0943 16.8612 26.0246 18.7629 25.2182C19.2249 25.0193 19.7299 24.842 20.251 24.6753C20.5572 25.7289 20.9601 26.8255 21.4596 27.949C20.9654 29.0671 20.5679 30.1583 20.2671 31.2065C19.7352 31.0398 19.2303 30.8571 18.7629 30.6582ZM21.653 38.3397C20.9224 37.9204 20.6055 36.3239 20.8526 34.2705C20.9117 33.7652 21.0084 33.233 21.1266 32.6901C22.1795 32.9481 23.3291 33.147 24.5378 33.276C25.263 34.2705 26.0151 35.1736 26.7725 35.9637C25.0213 37.5925 23.3774 38.4848 22.2601 38.4848C22.0183 38.4795 21.8142 38.4311 21.653 38.3397ZM34.3954 34.2436C34.6478 36.297 34.3363 37.8935 33.611 38.3182C33.4499 38.4149 33.2404 38.458 32.9933 38.458C31.8813 38.458 30.2321 37.571 28.4808 35.953C29.2329 35.1628 29.985 34.2651 30.6994 33.2707C31.9135 33.1416 33.0631 32.9427 34.116 32.6794C34.2396 33.2223 34.3363 33.7437 34.3954 34.2436ZM36.4636 30.6582C36.0016 30.8571 35.4966 31.0345 34.9755 31.2011C34.6693 30.1475 34.2664 29.0509 33.7668 27.9275C34.2611 26.8094 34.6586 25.7182 34.9594 24.6699C35.4912 24.8366 35.9962 25.0193 36.4689 25.2182C38.3706 26.0299 39.6008 27.0943 39.6008 27.9382C39.5954 28.7822 38.3652 29.8519 36.4636 30.6582Z" fill="#61DAFB" />
  <path d="M27.6108 30.3946C28.9666 30.3946 30.0657 29.2948 30.0657 27.938C30.0657 26.5813 28.9666 25.4814 27.6108 25.4814C26.2549 25.4814 25.1558 26.5813 25.1558 27.938C25.1558 29.2948 26.2549 30.3946 27.6108 30.3946Z" fill="#61DAFB" />
</svg>