<svg width="56" height="56" viewBox="0 0 56 56" fill="none" xmlns="http://www.w3.org/2000/svg">
<circle cx="28" cy="28" r="28" fill="#F8FAFF"/>
<g clip-path="url(#clip0_696_19028)">
<path d="M12 23.0933C12 17.8639 12 15.2492 13.6246 13.6246C15.2492 12 17.8639 12 23.0933 12H32.9067C38.1361 12 40.7508 12 42.3754 13.6246C44 15.2492 44 17.8639 44 23.0933V32.9067C44 38.1361 44 40.7508 42.3754 42.3754C40.7508 44 38.1361 44 32.9067 44H23.0933C17.8639 44 15.2492 44 13.6246 42.3754C12 40.7508 12 38.1361 12 32.9067V23.0933Z" fill="#4945FF"/>
<path fill-rule="evenodd" clip-rule="evenodd" d="M34.08 21.707H23.3066V27.2004H28.8V32.6937H34.2933V21.9204C34.2933 21.8026 34.1978 21.707 34.08 21.707Z" fill="white"/>
<path d="M28.7993 27.2002H28.5859V27.4135H28.7993V27.2002Z" fill="white"/>
<path d="M23.3066 27.2002H28.5866C28.7045 27.2002 28.8 27.2957 28.8 27.4135V32.6935H23.52C23.4022 32.6935 23.3066 32.598 23.3066 32.4802V27.2002Z" fill="#9593FF"/>
<path d="M28.8008 32.6934H34.2941L28.9829 38.0046C28.9157 38.0718 28.8008 38.0242 28.8008 37.9292V32.6934Z" fill="#9593FF"/>
<path d="M23.3076 27.2004H18.0717C17.9767 27.2004 17.9291 27.0855 17.9963 27.0183L23.3076 21.707V27.2004Z" fill="#9593FF"/>
</g>
<defs>
<clipPath id="clip0_696_19028">
<rect width="32" height="32" fill="white" transform="translate(12 12)"/>
</clipPath>
</defs>
</svg>
