<svg width="56" height="56" viewBox="0 0 56 56" fill="none" xmlns="http://www.w3.org/2000/svg">
<circle cx="28" cy="28" r="28" fill="#F8FAFF"/>
<path d="M27.8386 15.4L20.0387 16.2247L14 24.3311L27.8386 40.446L41.6773 24.331L35.6387 16.2247L27.8386 15.4Z" fill="#FDB300"/>
<path d="M14 24.3312L27.8386 40.4461L19.6053 24.3312H14Z" fill="#EB6C00"/>
<path d="M36.0715 24.3312L27.8382 40.4461L41.6769 24.3312H36.0715Z" fill="#EB6C00"/>
<path d="M19.6055 24.3312L27.8388 40.4461L36.0722 24.3312H19.6055Z" fill="#FDAD00"/>
<path d="M20.039 16.2247L19.6055 24.3311L27.8389 15.4L20.039 16.2247Z" fill="#FDD231"/>
<path d="M36.0715 24.3311L35.6381 16.2247L27.8382 15.4L36.0715 24.3311Z" fill="#FDD231"/>
<path d="M36.0719 24.3312H41.6772L35.6386 16.2247L36.0719 24.3312Z" fill="#FDAD00"/>
<path d="M14 24.3312H19.6053L20.0387 16.2247L14 24.3312Z" fill="#FDAD00"/>
<path d="M27.8388 15.4L19.6055 24.331H36.0722L27.8388 15.4Z" fill="#FEEEB7"/>
</svg>
