<svg width="44" height="44" viewBox="0 0 44 44" fill="none" xmlns="http://www.w3.org/2000/svg">
<path d="M20.7991 0H3.39215C1.52188 0 0 1.51577 0 3.39215V22.431H12.7924V14.681C12.7924 13.917 13.4097 13.2997 14.1737 13.2997H21.2575C26.2815 13.318 30.346 17.4008 30.346 22.4248H43.1383C43.1383 10.0725 33.1453 0.0550078 20.7991 0Z" fill="#006FF9"/>
<path d="M30.346 22.4309C30.346 27.2777 26.416 31.2077 21.5692 31.2077C16.7224 31.2077 12.7924 27.2777 12.7924 22.4309H0C0 34.3432 9.65693 44.0001 21.5692 44.0001C33.4814 44.0001 43.1383 34.3432 43.1383 22.4309H30.346Z" fill="#006FF9"/>
</svg>
